<svg xmlns="http://www.w3.org/2000/svg" xmlns:xlink="http://www.w3.org/1999/xlink" width="500" zoomAndPan="magnify" viewBox="0 0 375 374.999991" height="500" preserveAspectRatio="xMidYMid meet" version="1.2"><defs><clipPath id="b093f812a5"><path d="M 87.394531 34.300781 L 287.597656 34.300781 L 287.597656 340.6875 L 87.394531 340.6875 Z M 87.394531 34.300781 "/></clipPath><clipPath id="6edea9b2ce"><path d="M 138.035156 198.085938 L 236.964844 198.085938 L 236.964844 297.015625 L 138.035156 297.015625 Z M 138.035156 198.085938 "/></clipPath><clipPath id="a78913e407"><path d="M 187.496094 198.085938 C 160.179688 198.085938 138.035156 220.226562 138.035156 247.546875 C 138.035156 274.863281 160.179688 297.007812 187.496094 297.007812 L 236.957031 297.007812 L 236.957031 247.546875 C 236.964844 220.226562 214.8125 198.085938 187.496094 198.085938 Z M 187.496094 198.085938 "/></clipPath></defs><g id="0fab340b4c"><rect x="0" width="375" y="0" height="374.999991" style="fill:#ffffff;fill-opacity:1;stroke:none;"/><rect x="0" width="375" y="0" height="374.999991" style="fill:#0b4650;fill-opacity:1;stroke:none;"/><g clip-rule="nonzero" clip-path="url(#b093f812a5)"><path style=" stroke:none;fill-rule:nonzero;fill:#ffffff;fill-opacity:1;" d="M 87.394531 240.511719 C 87.394531 295.714844 132.316406 340.636719 187.519531 340.636719 L 287.644531 340.636719 L 287.644531 87.976562 C 287.644531 58.472656 263.597656 34.425781 234.089844 34.425781 C 204.585938 34.425781 180.539062 58.472656 180.539062 87.976562 L 180.539062 140.703125 C 128.574219 144.195312 87.394531 187.65625 87.394531 240.511719 Z M 234.089844 49.398438 C 255.347656 49.398438 272.667969 66.722656 272.667969 87.976562 L 272.667969 187.847656 C 256.300781 161.515625 228.128906 143.304688 195.578125 140.703125 L 195.578125 87.914062 C 195.578125 66.65625 212.835938 49.398438 234.089844 49.398438 Z M 187.519531 155.363281 C 234.472656 155.363281 272.667969 193.558594 272.667969 240.511719 L 272.667969 325.664062 L 187.519531 325.664062 C 140.566406 325.664062 102.367188 287.464844 102.367188 240.511719 C 102.367188 193.558594 140.566406 155.363281 187.519531 155.363281 Z M 187.519531 155.363281 "/></g><g clip-rule="nonzero" clip-path="url(#6edea9b2ce)"><g clip-rule="nonzero" clip-path="url(#a78913e407)"><path style=" stroke:none;fill-rule:nonzero;fill:#ffffff;fill-opacity:1;" d="M 138.035156 198.085938 L 236.964844 198.085938 L 236.964844 297.015625 L 138.035156 297.015625 Z M 138.035156 198.085938 "/></g></g></g></svg>