<svg width="176" height="145" viewBox="0 0 176 145" fill="none" xmlns="http://www.w3.org/2000/svg">
<mask id="mask0_3_410" style="mask-type:luminance" maskUnits="userSpaceOnUse" x="0" y="0" width="176" height="145">
<path d="M0 0H176V144.619H0V0Z" fill="white"/>
</mask>
<g mask="url(#mask0_3_410)">
<mask id="mask1_3_410" style="mask-type:luminance" maskUnits="userSpaceOnUse" x="-10" y="-33" width="196" height="204">
<path d="M31.3816 -32.8669L185.017 10.0458L143.765 170.8L-9.87244 127.888L31.3816 -32.8669Z" fill="white"/>
</mask>
<g mask="url(#mask1_3_410)">
<mask id="mask2_3_410" style="mask-type:luminance" maskUnits="userSpaceOnUse" x="-10" y="-33" width="196" height="204">
<path d="M31.3816 -32.8669L185.017 10.0458L143.765 170.8L-9.87244 127.888L31.3816 -32.8669Z" fill="white"/>
</mask>
<g mask="url(#mask2_3_410)">
<path d="M165.168 67.7861C155.88 80.373 149.763 88.6903 153.298 109.116C154.132 113.841 153.325 120.872 149.652 125.918C147.062 129.47 143.41 131.573 139.078 132.003L138.711 132.041L138.333 132.009C137.906 131.98 127.834 131.163 122.363 121.583C116.936 112.011 118.341 97.7417 126.563 79.1395C138.838 51.4013 131.359 39.8364 127.567 36.1506C122.912 31.6355 116.698 31.4303 112.963 33.5736C110.773 34.8452 107.99 33.9989 106.779 31.7032C105.559 29.4181 106.354 26.5153 108.57 25.2542C116.386 20.7645 126.751 22.3937 133.758 29.2044C139.001 34.2887 149.617 49.7489 134.841 83.1278C126.283 102.426 127.561 112 130.138 116.638C132.783 121.363 137.236 122.258 138.433 122.427C140.11 122.194 141.406 121.536 142.398 120.182C143.164 119.145 143.659 117.882 143.99 116.589C144.541 114.44 144.586 112.21 144.344 110.809C142.594 100.71 142.965 92.8626 144.651 86.2127C147.09 76.7064 152.307 69.6544 157.959 61.9888L162.181 56.1831C163.678 54.0376 164.805 51.4204 165.531 48.5365C168.297 37.8115 165.831 23.3394 159.035 15.8474C150.972 6.9758 141.004 10.1093 132.854 15.365C132.105 13.6342 131.108 11.9839 129.741 10.5473C128.82 9.60151 127.816 8.78058 126.755 8.10141C148.897 -6.94408 160.972 4.18929 165.631 9.30319C177.259 22.108 179.188 48.1134 169.506 61.8111L165.168 67.7861ZM54.7991 79.4125C50.2199 78.1261 45.4966 80.9718 44.2717 85.7408C43.0427 90.531 45.7704 95.4651 50.3517 96.743C54.9371 98.0252 59.6623 95.1731 60.8934 90.3829C62.1163 85.6139 59.3845 80.6925 54.7991 79.4125ZM120.98 72.4599C120.98 72.4599 118.958 78.1261 118.759 78.7037C118.552 79.0253 115.05 84.6047 115.05 84.6047L62.9376 138.972C59.7516 142.307 55.5231 144.135 51.0209 144.143C46.539 144.143 42.3085 142.322 39.1327 139.006L5.06795 103.497C-1.46229 96.6647 -1.4704 85.5018 5.09634 78.6487L57.2024 24.2535C57.2024 24.2535 62.9396 20.3688 62.5523 20.5402L69.0724 18.1811L113.377 7.58304C118.08 6.37068 123.162 7.99562 126.94 11.9183C130.027 15.1386 131.529 19.3808 131.361 23.4727C124.21 19.019 115.433 18.3567 108.195 21.9705C104.277 21.029 100.008 22.0149 96.9719 25.214C92.2202 30.1629 92.2263 38.1903 96.9618 43.1243C101.707 48.0753 109.414 48.0732 114.157 43.1222C116.183 41.0022 117.274 38.313 117.55 35.5349C122.894 34.1343 127.926 40.1431 127.735 41.7956C127.504 43.8183 120.98 72.4599 120.98 72.4599ZM78.6183 90.1629C79.3828 87.1817 78.7156 83.8197 76.645 81.3569C75.8764 80.4429 73.6942 78.7143 70.2689 78.2192C70.5102 77.6542 71.0112 77.0491 71.1491 76.5138C71.7818 74.0468 71.4005 72.0537 71.143 71.1037C69.8957 66.8065 65.931 63.9481 61.6944 64.2845C60.5831 64.3987 58.0927 65.1266 55.7848 67.5132C54.0812 64.2443 51.6679 62.7124 50.5423 62.2723C46.5654 60.7363 42.0429 62.2448 39.7857 65.8459C39.4896 66.3516 39.0373 67.2233 38.7291 68.4188C38.4411 69.5465 38.4087 71.0572 38.6175 72.6948C34.9996 72.0262 32.2658 73.0799 31.2213 73.7506C29.1446 75.0624 27.7291 77.0809 27.145 79.3554C26.7232 81.0014 26.7475 82.7893 27.2748 84.4862C27.6196 85.6181 28.6985 88.1254 31.629 89.9725C29.3779 91.9444 28.4632 94.1237 28.088 95.5836C27.9968 95.9454 27.94 96.25 27.8974 96.5061C27.2849 100.725 29.4772 104.8 33.2554 106.414C34.3627 106.873 37.0539 107.654 40.4894 106.423C40.4874 110.075 41.9638 112.379 42.7121 113.289C45.381 116.53 49.8305 117.37 53.5113 115.364C54.5984 114.768 56.8474 112.825 58.19 109.245C60.7838 111.518 63.3696 111.913 64.4769 111.888C68.4011 111.776 71.8345 108.86 72.8627 104.857C72.9155 104.648 72.95 104.464 72.9865 104.273C73.2359 103.025 73.2501 100.039 71.4452 96.7578C74.6292 96.0004 76.5233 94.1829 77.1845 93.2562C77.8598 92.3125 78.3384 91.2546 78.6183 90.1629Z" fill="black"/>
</g>
</g>
</g>
<mask id="mask3_3_410" style="mask-type:luminance" maskUnits="userSpaceOnUse" x="0" y="0" width="176" height="145">
<path d="M0 0H176V144.619H0V0Z" fill="white"/>
</mask>
<g mask="url(#mask3_3_410)">
<mask id="mask4_3_410" style="mask-type:luminance" maskUnits="userSpaceOnUse" x="-10" y="-33" width="196" height="204">
<path d="M31.3816 -32.8669L185.017 10.0458L143.765 170.8L-9.87244 127.888L31.3816 -32.8669Z" fill="white"/>
</mask>
<g mask="url(#mask4_3_410)">
<mask id="mask5_3_410" style="mask-type:luminance" maskUnits="userSpaceOnUse" x="-10" y="-33" width="196" height="204">
<path d="M31.3816 -32.8669L185.017 10.0458L143.765 170.8L-9.87244 127.888L31.3816 -32.8669Z" fill="white"/>
</mask>
<g mask="url(#mask5_3_410)">
<path d="M165.168 67.7861C155.88 80.373 149.763 88.6903 153.298 109.116C154.132 113.841 153.325 120.872 149.652 125.918C147.062 129.47 143.41 131.573 139.078 132.003L138.711 132.041L138.333 132.009C137.906 131.98 127.834 131.163 122.363 121.583C116.936 112.011 118.341 97.7417 126.563 79.1395C138.838 51.4013 131.359 39.8364 127.567 36.1506C122.912 31.6355 116.698 31.4303 112.963 33.5736C110.773 34.8452 107.99 33.9989 106.779 31.7032C105.559 29.4181 106.354 26.5153 108.57 25.2542C116.386 20.7645 126.751 22.3937 133.758 29.2044C139.001 34.2887 149.617 49.7489 134.841 83.1278C126.283 102.426 127.561 112 130.138 116.638C132.783 121.363 137.236 122.258 138.433 122.427C140.11 122.194 141.406 121.536 142.398 120.182C143.164 119.145 143.659 117.882 143.99 116.589C144.541 114.44 144.586 112.21 144.344 110.809C142.594 100.71 142.965 92.8626 144.651 86.2127C147.09 76.7064 152.307 69.6544 157.959 61.9888L162.181 56.1831C163.678 54.0376 164.805 51.4204 165.531 48.5365C168.297 37.8115 165.831 23.3394 159.035 15.8474C150.972 6.9758 141.004 10.1093 132.854 15.365C132.105 13.6342 131.108 11.9839 129.741 10.5473C128.82 9.60151 127.816 8.78058 126.755 8.10141C148.897 -6.94408 160.972 4.18929 165.631 9.30319C177.259 22.108 179.188 48.1134 169.506 61.8111L165.168 67.7861ZM54.7991 79.4125C50.2199 78.1261 45.4966 80.9718 44.2717 85.7408C43.0427 90.531 45.7704 95.4651 50.3517 96.743C54.9371 98.0252 59.6623 95.1731 60.8934 90.3829C62.1163 85.6139 59.3845 80.6925 54.7991 79.4125ZM120.98 72.4599C120.98 72.4599 118.958 78.1261 118.759 78.7037C118.552 79.0253 115.05 84.6047 115.05 84.6047L62.9376 138.972C59.7516 142.307 55.5231 144.135 51.0209 144.143C46.539 144.143 42.3085 142.322 39.1327 139.006L5.06795 103.497C-1.46229 96.6647 -1.4704 85.5018 5.09634 78.6487L57.2024 24.2535C57.2024 24.2535 62.9396 20.3688 62.5523 20.5402L69.0724 18.1811L113.377 7.58304C118.08 6.37068 123.162 7.99562 126.94 11.9183C130.027 15.1386 131.529 19.3808 131.361 23.4727C124.21 19.019 115.433 18.3567 108.195 21.9705C104.277 21.029 100.008 22.0149 96.9719 25.214C92.2202 30.1629 92.2263 38.1903 96.9618 43.1243C101.707 48.0753 109.414 48.0732 114.157 43.1222C116.183 41.0022 117.274 38.313 117.55 35.5349C122.894 34.1343 127.926 40.1431 127.735 41.7956C127.504 43.8183 120.98 72.4599 120.98 72.4599ZM78.6183 90.1629C79.3828 87.1817 78.7156 83.8197 76.645 81.3569C75.8764 80.4429 73.6942 78.7143 70.2689 78.2192C70.5102 77.6542 71.0112 77.0491 71.1491 76.5138C71.7818 74.0468 71.4005 72.0537 71.143 71.1037C69.8957 66.8065 65.931 63.9481 61.6944 64.2845C60.5831 64.3987 58.0927 65.1266 55.7848 67.5132C54.0812 64.2443 51.6679 62.7124 50.5423 62.2723C46.5654 60.7363 42.0429 62.2448 39.7857 65.8459C39.4896 66.3516 39.0373 67.2233 38.7291 68.4188C38.4411 69.5465 38.4087 71.0572 38.6175 72.6948C34.9996 72.0262 32.2658 73.0799 31.2213 73.7506C29.1446 75.0624 27.7291 77.0809 27.145 79.3554C26.7232 81.0014 26.7475 82.7893 27.2748 84.4862C27.6196 85.6181 28.6985 88.1254 31.629 89.9725C29.3779 91.9444 28.4632 94.1237 28.088 95.5836C27.9968 95.9454 27.94 96.25 27.8974 96.5061C27.2849 100.725 29.4772 104.8 33.2554 106.414C34.3627 106.873 37.0539 107.654 40.4894 106.423C40.4874 110.075 41.9638 112.379 42.7121 113.289C45.381 116.53 49.8305 117.37 53.5113 115.364C54.5984 114.768 56.8474 112.825 58.19 109.245C60.7838 111.518 63.3696 111.913 64.4769 111.888C68.4011 111.776 71.8345 108.86 72.8627 104.857C72.9155 104.648 72.95 104.464 72.9865 104.273C73.2359 103.025 73.2501 100.039 71.4452 96.7578C74.6292 96.0004 76.5233 94.1829 77.1845 93.2562C77.8598 92.3125 78.3384 91.2546 78.6183 90.1629Z" fill="#007AFF"/>
</g>
</g>
</g>
<mask id="mask6_3_410" style="mask-type:luminance" maskUnits="userSpaceOnUse" x="25" y="56" width="63" height="66">
<path d="M25.259 56.1048H87.4808V121.018H25.259V56.1048Z" fill="white"/>
</mask>
<g mask="url(#mask6_3_410)">
<mask id="mask7_3_410" style="mask-type:luminance" maskUnits="userSpaceOnUse" x="25" y="56" width="63" height="66">
<path d="M56.3709 56.1048C39.1875 56.1048 25.259 70.6361 25.259 88.5612C25.259 106.486 39.1875 121.018 56.3709 121.018C73.5524 121.018 87.4808 106.486 87.4808 88.5612C87.4808 70.6361 73.5524 56.1048 56.3709 56.1048Z" fill="white"/>
</mask>
<g mask="url(#mask7_3_410)">
<path d="M25.259 56.1048H87.4808V121.018H25.259V56.1048Z" fill="black"/>
</g>
</g>
<mask id="mask8_3_410" style="mask-type:luminance" maskUnits="userSpaceOnUse" x="25" y="56" width="63" height="66">
<path d="M25.259 56.1048H87.4808V121.018H25.259V56.1048Z" fill="white"/>
</mask>
<g mask="url(#mask8_3_410)">
<mask id="mask9_3_410" style="mask-type:luminance" maskUnits="userSpaceOnUse" x="25" y="56" width="63" height="66">
<path d="M56.3709 56.1048C39.1875 56.1048 25.259 70.6361 25.259 88.5612C25.259 106.486 39.1875 121.018 56.3709 121.018C73.5524 121.018 87.4808 106.486 87.4808 88.5612C87.4808 70.6361 73.5524 56.1048 56.3709 56.1048Z" fill="white"/>
</mask>
<g mask="url(#mask9_3_410)">
<path d="M25.259 56.1048H87.4808V121.018H25.259V56.1048Z" fill="#007AFF"/>
</g>
</g>
<path d="M65.1363 106.731C62.5052 109.36 59.5824 111.009 56.3696 111.676C53.1551 112.341 49.8056 111.982 46.3193 110.596C42.8331 109.211 39.3505 106.778 35.8752 103.303C34.3382 101.766 32.9378 100.163 31.6742 98.4968C30.4143 96.8339 29.3075 95.1309 28.3558 93.3914C27.4076 91.6556 26.6218 89.8869 26 88.0891L34.7302 79.3589C35.8971 82.393 37.2391 85.4161 38.7561 88.4246C40.2731 91.4331 42.1421 94.0496 44.3647 96.2723C45.9 97.8075 47.3404 98.8432 48.6824 99.3793C50.028 99.919 51.2679 100.047 52.402 99.7658C53.5343 99.4832 54.5554 98.8869 55.4652 97.9789C56.5775 96.8649 57.1537 95.5393 57.1938 94.004C57.2321 92.467 56.9422 90.702 56.3259 88.709C55.7077 86.7161 54.9766 84.5081 54.1306 82.0867C53.5799 80.5751 53.0475 78.863 52.5333 76.9521C52.0173 75.0412 51.7183 73.0356 51.6362 70.9351C51.5578 68.8309 51.8933 66.7086 52.6427 64.568C53.3903 62.4292 54.776 60.3487 56.7999 58.3248C59.4438 55.681 62.3137 54.0217 65.4061 53.3507C68.4985 52.6798 71.6711 52.9715 74.924 54.226C78.1768 55.4804 81.3385 57.6447 84.4127 60.7171C86.7119 63.0181 88.6392 65.4833 90.1963 68.1125C91.7571 70.7382 93.1738 73.6993 94.4483 76.9959L84.1136 81.2625C82.8975 78.3944 81.7086 75.9237 80.5472 73.8524C79.3839 71.7811 77.9671 69.9104 76.2951 68.2365C75.1227 67.0659 73.9339 66.2527 72.7287 65.8005C71.5271 65.3447 70.3747 65.2426 69.2716 65.4942C68.1721 65.7422 67.1784 66.3111 66.2886 67.2009C65.2329 68.2566 64.6549 69.4509 64.5528 70.7819C64.4507 72.1148 64.6859 73.7357 65.2602 75.6466C65.8382 77.5538 66.6132 79.8822 67.5868 82.6337C68.7775 85.9649 69.5943 89.0117 70.0374 91.7796C70.4841 94.551 70.3601 97.1548 69.6654 99.5908C68.9689 102.027 67.4592 104.406 65.1363 106.731Z" fill="white"/>
</svg>
