
<svg xmlns="http://www.w3.org/2000/svg" xmlns:xlink="http://www.w3.org/1999/xlink" width="1000" zoomAndPan="magnify" viewBox="0 0 750 225" height="300" preserveAspectRatio="xMidYMid meet" version="1.2"><defs><clipPath id="1ff96fdf3c"><path d="M 0 26 L 108.898438 26 L 108.898438 196.59375 L 0 196.59375 Z M 0 26 "/></clipPath><clipPath id="26893300b1"><path d="M 25.796875 117.125 L 80.925781 117.125 L 80.925781 172.253906 L 25.796875 172.253906 Z M 25.796875 117.125 "/></clipPath><clipPath id="e371acaf1c"><path d="M 53.359375 117.125 C 38.136719 117.125 25.796875 129.464844 25.796875 144.6875 C 25.796875 159.910156 38.136719 172.246094 53.359375 172.246094 L 80.921875 172.246094 L 80.921875 144.6875 C 80.925781 129.464844 68.582031 117.125 53.359375 117.125 Z M 53.359375 117.125 "/></clipPath></defs><g id="c91fd96268"><rect x="0" width="750" y="0" height="225" style="fill:#ffffff;fill-opacity:1;stroke:none;"/><rect x="0" width="750" y="0" height="225" style="fill:#ffffff;fill-opacity:1;stroke:none;"/><g clip-rule="nonzero" clip-path="url(#1ff96fdf3c)"><path style=" stroke:none;fill-rule:nonzero;fill:#ffffff;fill-opacity:1;" d="M -2.179688 140.890625 C -2.179688 171.582031 22.800781 196.5625 53.492188 196.5625 L 109.167969 196.5625 L 109.167969 56.074219 C 109.167969 39.667969 95.796875 26.296875 79.390625 26.296875 C 62.984375 26.296875 49.613281 39.667969 49.613281 56.074219 L 49.613281 85.394531 C 20.71875 87.332031 -2.179688 111.5 -2.179688 140.890625 Z M 79.390625 34.625 C 91.210938 34.625 100.839844 44.253906 100.839844 56.074219 L 100.839844 111.605469 C 91.738281 96.964844 76.074219 86.839844 57.976562 85.394531 L 57.976562 56.039062 C 57.976562 44.21875 67.570312 34.625 79.390625 34.625 Z M 53.492188 93.542969 C 79.601562 93.542969 100.839844 114.78125 100.839844 140.890625 L 100.839844 188.238281 L 53.492188 188.238281 C 27.386719 188.238281 6.148438 166.996094 6.148438 140.890625 C 6.148438 114.78125 27.386719 93.542969 53.492188 93.542969 Z M 53.492188 93.542969 "/></g><g clip-rule="nonzero" clip-path="url(#26893300b1)"><g clip-rule="nonzero" clip-path="url(#e371acaf1c)"><path style=" stroke:none;fill-rule:nonzero;fill:#ffffff;fill-opacity:1;" d="M 25.796875 117.125 L 80.925781 117.125 L 80.925781 172.253906 L 25.796875 172.253906 Z M 25.796875 117.125 "/></g></g><g style="fill:#ffffff;fill-opacity:1;"><g transform="translate(134.290152, 152.532829)"><path style="stroke:none" d="M 22.296875 0 L 22.296875 -13.3125 L 52.171875 -13.3125 C 60.117188 -13.3125 67.082031 -15.039062 73.0625 -18.5 C 79.050781 -21.957031 83.722656 -26.726562 87.078125 -32.8125 C 90.429688 -38.90625 92.109375 -45.925781 92.109375 -53.875 C 92.109375 -61.71875 90.40625 -68.679688 87 -74.765625 C 83.59375 -80.859375 78.894531 -85.609375 72.90625 -89.015625 C 66.925781 -92.421875 60.015625 -94.125 52.171875 -94.125 L 22.453125 -94.125 L 22.453125 -107.4375 L 52.484375 -107.4375 C 60.328125 -107.4375 67.578125 -106.09375 74.234375 -103.40625 C 80.890625 -100.726562 86.664062 -96.960938 91.5625 -92.109375 C 96.46875 -87.265625 100.285156 -81.585938 103.015625 -75.078125 C 105.753906 -68.578125 107.125 -61.457031 107.125 -53.71875 C 107.125 -46.082031 105.753906 -38.988281 103.015625 -32.4375 C 100.285156 -25.882812 96.492188 -20.179688 91.640625 -15.328125 C 86.796875 -10.472656 81.046875 -6.703125 74.390625 -4.015625 C 67.734375 -1.335938 60.535156 0 52.796875 0 Z M 12.6875 0 L 12.6875 -107.4375 L 27.25 -107.4375 L 27.25 0 Z M 12.6875 0 "/></g></g><g style="fill:#ffffff;fill-opacity:1;"><g transform="translate(248.84289, 152.532829)"><path style="stroke:none" d="M 41.484375 1.546875 C 34.773438 1.546875 28.6875 -0.128906 23.21875 -3.484375 C 17.75 -6.835938 13.441406 -11.40625 10.296875 -17.1875 C 7.148438 -22.96875 5.578125 -29.46875 5.578125 -36.6875 C 5.578125 -43.914062 7.148438 -50.414062 10.296875 -56.1875 C 13.441406 -61.96875 17.722656 -66.5625 23.140625 -69.96875 C 28.554688 -73.375 34.671875 -75.078125 41.484375 -75.078125 C 47.054688 -75.078125 52.035156 -73.914062 56.421875 -71.59375 C 60.816406 -69.28125 64.351562 -66.082031 67.03125 -62 C 69.71875 -57.925781 71.210938 -53.207031 71.515625 -47.84375 L 71.515625 -25.703125 C 71.210938 -20.429688 69.742188 -15.734375 67.109375 -11.609375 C 64.472656 -7.484375 60.960938 -4.257812 56.578125 -1.9375 C 52.191406 0.382812 47.160156 1.546875 41.484375 1.546875 Z M 43.8125 -11.609375 C 50.726562 -11.609375 56.300781 -13.957031 60.53125 -18.65625 C 64.757812 -23.351562 66.875 -29.363281 66.875 -36.6875 C 66.875 -41.75 65.921875 -46.160156 64.015625 -49.921875 C 62.109375 -53.691406 59.398438 -56.632812 55.890625 -58.75 C 52.378906 -60.863281 48.300781 -61.921875 43.65625 -61.921875 C 39.007812 -61.921875 34.90625 -60.835938 31.34375 -58.671875 C 27.789062 -56.503906 25.003906 -53.535156 22.984375 -49.765625 C 20.972656 -46.003906 19.96875 -41.695312 19.96875 -36.84375 C 19.96875 -31.894531 20.972656 -27.535156 22.984375 -23.765625 C 25.003906 -19.992188 27.816406 -17.023438 31.421875 -14.859375 C 35.035156 -12.691406 39.164062 -11.609375 43.8125 -11.609375 Z M 65.953125 0 L 65.953125 -19.8125 L 68.578125 -37.78125 L 65.953125 -55.578125 L 65.953125 -73.53125 L 80.03125 -73.53125 L 80.03125 0 Z M 65.953125 0 "/></g></g><g style="fill:#ffffff;fill-opacity:1;"><g transform="translate(338.937065, 152.532829)"><path style="stroke:none" d="M 10.375 0 L 10.375 -73.53125 L 24.3125 -73.53125 L 24.3125 0 Z M 17.34375 -88.25 C 14.757812 -88.25 12.640625 -89.097656 10.984375 -90.796875 C 9.335938 -92.503906 8.515625 -94.644531 8.515625 -97.21875 C 8.515625 -99.695312 9.335938 -101.785156 10.984375 -103.484375 C 12.640625 -105.191406 14.757812 -106.046875 17.34375 -106.046875 C 19.914062 -106.046875 22.023438 -105.191406 23.671875 -103.484375 C 25.328125 -101.785156 26.15625 -99.695312 26.15625 -97.21875 C 26.15625 -94.644531 25.328125 -92.503906 23.671875 -90.796875 C 22.023438 -89.097656 19.914062 -88.25 17.34375 -88.25 Z M 17.34375 -88.25 "/></g></g><g style="fill:#ffffff;fill-opacity:1;"><g transform="translate(373.612502, 152.532829)"><path style="stroke:none" d="M 10.21875 0 L 10.21875 -110.53125 L 24.15625 -110.53125 L 24.15625 0 Z M 10.21875 0 "/></g></g><g style="fill:#ffffff;fill-opacity:1;"><g transform="translate(407.978329, 152.532829)"><path style="stroke:none" d="M 34.375 0.625 L 2.484375 -73.53125 L 17.953125 -73.53125 L 41.640625 -15.484375 L 36.6875 -15.484375 L 61.609375 -73.53125 L 77.09375 -73.53125 L 42.734375 0.625 Z M 13.3125 30.8125 L 34.984375 -13.625 L 42.734375 0.625 L 28.796875 30.8125 Z M 13.3125 30.8125 "/></g></g><g style="fill:#ffffff;fill-opacity:1;"><g transform="translate(487.54605, 152.532829)"><path style="stroke:none" d="M 22.453125 -41.796875 L 22.453125 -54.5 L 51.703125 -54.5 C 55.734375 -54.5 59.320312 -55.320312 62.46875 -56.96875 C 65.613281 -58.625 68.085938 -60.945312 69.890625 -63.9375 C 71.703125 -66.925781 72.609375 -70.488281 72.609375 -74.625 C 72.609375 -78.75 71.703125 -82.304688 69.890625 -85.296875 C 68.085938 -88.296875 65.613281 -90.617188 62.46875 -92.265625 C 59.320312 -93.921875 55.734375 -94.75 51.703125 -94.75 L 22.453125 -94.75 L 22.453125 -107.4375 L 52.640625 -107.4375 C 59.242188 -107.4375 65.148438 -106.09375 70.359375 -103.40625 C 75.578125 -100.726562 79.707031 -96.9375 82.75 -92.03125 C 85.789062 -87.132812 87.3125 -81.332031 87.3125 -74.625 C 87.3125 -68.019531 85.789062 -62.265625 82.75 -57.359375 C 79.707031 -52.453125 75.578125 -48.628906 70.359375 -45.890625 C 65.148438 -43.160156 59.242188 -41.796875 52.640625 -41.796875 Z M 12.6875 0 L 12.6875 -107.4375 L 27.25 -107.4375 L 27.25 0 Z M 12.6875 0 "/></g></g><g style="fill:#ffffff;fill-opacity:1;"><g transform="translate(577.175622, 152.532829)"><path style="stroke:none" d="M 41.484375 1.546875 C 34.773438 1.546875 28.6875 -0.128906 23.21875 -3.484375 C 17.75 -6.835938 13.441406 -11.40625 10.296875 -17.1875 C 7.148438 -22.96875 5.578125 -29.46875 5.578125 -36.6875 C 5.578125 -43.914062 7.148438 -50.414062 10.296875 -56.1875 C 13.441406 -61.96875 17.722656 -66.5625 23.140625 -69.96875 C 28.554688 -73.375 34.671875 -75.078125 41.484375 -75.078125 C 47.054688 -75.078125 52.035156 -73.914062 56.421875 -71.59375 C 60.816406 -69.28125 64.351562 -66.082031 67.03125 -62 C 69.71875 -57.925781 71.210938 -53.207031 71.515625 -47.84375 L 71.515625 -25.703125 C 71.210938 -20.429688 69.742188 -15.734375 67.109375 -11.609375 C 64.472656 -7.484375 60.960938 -4.257812 56.578125 -1.9375 C 52.191406 0.382812 47.160156 1.546875 41.484375 1.546875 Z M 43.8125 -11.609375 C 50.726562 -11.609375 56.300781 -13.957031 60.53125 -18.65625 C 64.757812 -23.351562 66.875 -29.363281 66.875 -36.6875 C 66.875 -41.75 65.921875 -46.160156 64.015625 -49.921875 C 62.109375 -53.691406 59.398438 -56.632812 55.890625 -58.75 C 52.378906 -60.863281 48.300781 -61.921875 43.65625 -61.921875 C 39.007812 -61.921875 34.90625 -60.835938 31.34375 -58.671875 C 27.789062 -56.503906 25.003906 -53.535156 22.984375 -49.765625 C 20.972656 -46.003906 19.96875 -41.695312 19.96875 -36.84375 C 19.96875 -31.894531 20.972656 -27.535156 22.984375 -23.765625 C 25.003906 -19.992188 27.816406 -17.023438 31.421875 -14.859375 C 35.035156 -12.691406 39.164062 -11.609375 43.8125 -11.609375 Z M 65.953125 0 L 65.953125 -19.8125 L 68.578125 -37.78125 L 65.953125 -55.578125 L 65.953125 -73.53125 L 80.03125 -73.53125 L 80.03125 0 Z M 65.953125 0 "/></g></g><g style="fill:#ffffff;fill-opacity:1;"><g transform="translate(667.269797, 152.532829)"><path style="stroke:none" d="M 34.375 0.625 L 2.484375 -73.53125 L 17.953125 -73.53125 L 41.640625 -15.484375 L 36.6875 -15.484375 L 61.609375 -73.53125 L 77.09375 -73.53125 L 42.734375 0.625 Z M 13.3125 30.8125 L 34.984375 -13.625 L 42.734375 0.625 L 28.796875 30.8125 Z M 13.3125 30.8125 "/></g></g><g style="fill:#ffffff;fill-opacity:1;"><g transform="translate(149.104803, 187.160568)"><path style="stroke:none" d="M 9.78125 0.3125 C 8.664062 0.3125 7.660156 0.0820312 6.765625 -0.375 C 5.867188 -0.84375 5.148438 -1.488281 4.609375 -2.3125 C 4.078125 -3.144531 3.78125 -4.085938 3.71875 -5.140625 L 3.71875 -9.5625 C 3.78125 -10.632812 4.082031 -11.578125 4.625 -12.390625 C 5.175781 -13.210938 5.898438 -13.851562 6.796875 -14.3125 C 7.691406 -14.78125 8.6875 -15.015625 9.78125 -15.015625 C 11.125 -15.015625 12.335938 -14.671875 13.421875 -13.984375 C 14.503906 -13.304688 15.351562 -12.390625 15.96875 -11.234375 C 16.59375 -10.078125 16.90625 -8.773438 16.90625 -7.328125 C 16.90625 -5.890625 16.59375 -4.59375 15.96875 -3.4375 C 15.351562 -2.28125 14.503906 -1.363281 13.421875 -0.6875 C 12.335938 -0.0195312 11.125 0.3125 9.78125 0.3125 Z M 2.046875 0 L 2.046875 -22.09375 L 4.828125 -22.09375 L 4.828125 -11.109375 L 4.296875 -7.546875 L 4.828125 -3.96875 L 4.828125 0 Z M 9.3125 -2.328125 C 10.238281 -2.328125 11.050781 -2.539062 11.75 -2.96875 C 12.457031 -3.40625 13.015625 -4 13.421875 -4.75 C 13.835938 -5.5 14.046875 -6.367188 14.046875 -7.359375 C 14.046875 -8.335938 13.835938 -9.207031 13.421875 -9.96875 C 13.015625 -10.726562 12.457031 -11.316406 11.75 -11.734375 C 11.050781 -12.160156 10.25 -12.375 9.34375 -12.375 C 8.414062 -12.375 7.597656 -12.160156 6.890625 -11.734375 C 6.191406 -11.316406 5.644531 -10.726562 5.25 -9.96875 C 4.863281 -9.207031 4.671875 -8.328125 4.671875 -7.328125 C 4.671875 -6.359375 4.859375 -5.5 5.234375 -4.75 C 5.617188 -4 6.164062 -3.40625 6.875 -2.96875 C 7.59375 -2.539062 8.40625 -2.328125 9.3125 -2.328125 Z M 9.3125 -2.328125 "/></g></g><g style="fill:#ffffff;fill-opacity:1;"><g transform="translate(166.560143, 187.160568)"><path style="stroke:none" d="M 6.875 0.125 L 0.5 -14.703125 L 3.59375 -14.703125 L 8.328125 -3.09375 L 7.328125 -3.09375 L 12.3125 -14.703125 L 15.421875 -14.703125 L 8.546875 0.125 Z M 2.65625 6.15625 L 7 -2.71875 L 8.546875 0.125 L 5.75 6.15625 Z M 2.65625 6.15625 "/></g></g><g style="fill:#ffffff;fill-opacity:1;"><g transform="translate(182.468083, 187.160568)"><path style="stroke:none" d=""/></g></g><g style="fill:#ffffff;fill-opacity:1;"><g transform="translate(188.03886, 187.160568)"><path style="stroke:none" d="M 0.953125 0 L 9.75 -21.484375 L 11.859375 -21.484375 L 20.609375 0 L 17.453125 0 L 10.25 -18.171875 L 11.328125 -18.171875 L 4.0625 0 Z M 5.140625 -4.859375 L 5.140625 -7.390625 L 16.4375 -7.390625 L 16.4375 -4.859375 Z M 5.140625 -4.859375 "/></g></g><g style="fill:#ffffff;fill-opacity:1;"><g transform="translate(209.57957, 187.160568)"><path style="stroke:none" d="M 2.046875 0 L 2.046875 -22.09375 L 4.828125 -22.09375 L 4.828125 0 Z M 2.046875 0 "/></g></g><g style="fill:#ffffff;fill-opacity:1;"><g transform="translate(216.450316, 187.160568)"><path style="stroke:none" d="M 8.859375 0.3125 C 7.390625 0.3125 6.066406 -0.0195312 4.890625 -0.6875 C 3.710938 -1.363281 2.78125 -2.28125 2.09375 -3.4375 C 1.414062 -4.59375 1.078125 -5.898438 1.078125 -7.359375 C 1.078125 -8.804688 1.410156 -10.109375 2.078125 -11.265625 C 2.753906 -12.421875 3.664062 -13.332031 4.8125 -14 C 5.957031 -14.675781 7.242188 -15.015625 8.671875 -15.015625 C 10.023438 -15.015625 11.222656 -14.703125 12.265625 -14.078125 C 13.316406 -13.460938 14.132812 -12.609375 14.71875 -11.515625 C 15.300781 -10.421875 15.59375 -9.179688 15.59375 -7.796875 C 15.59375 -7.585938 15.582031 -7.363281 15.5625 -7.125 C 15.539062 -6.894531 15.503906 -6.625 15.453125 -6.3125 L 3.03125 -6.3125 L 3.03125 -8.640625 L 13.953125 -8.640625 L 12.9375 -7.734375 C 12.9375 -8.722656 12.757812 -9.5625 12.40625 -10.25 C 12.0625 -10.945312 11.566406 -11.484375 10.921875 -11.859375 C 10.285156 -12.242188 9.515625 -12.4375 8.609375 -12.4375 C 7.660156 -12.4375 6.820312 -12.226562 6.09375 -11.8125 C 5.375 -11.40625 4.816406 -10.828125 4.421875 -10.078125 C 4.035156 -9.335938 3.84375 -8.460938 3.84375 -7.453125 C 3.84375 -6.421875 4.046875 -5.519531 4.453125 -4.75 C 4.867188 -3.976562 5.457031 -3.378906 6.21875 -2.953125 C 6.976562 -2.535156 7.859375 -2.328125 8.859375 -2.328125 C 9.679688 -2.328125 10.4375 -2.46875 11.125 -2.75 C 11.820312 -3.039062 12.414062 -3.476562 12.90625 -4.0625 L 14.703125 -2.234375 C 14.003906 -1.398438 13.144531 -0.765625 12.125 -0.328125 C 11.101562 0.0976562 10.015625 0.3125 8.859375 0.3125 Z M 8.859375 0.3125 "/></g></g><g style="fill:#ffffff;fill-opacity:1;"><g transform="translate(233.039133, 187.160568)"><path style="stroke:none" d="M 2.046875 0 L 2.046875 -14.703125 L 4.828125 -14.703125 L 4.828125 0 Z M 4.828125 -8.390625 L 3.78125 -8.859375 C 3.78125 -10.734375 4.210938 -12.226562 5.078125 -13.34375 C 5.941406 -14.457031 7.191406 -15.015625 8.828125 -15.015625 C 9.566406 -15.015625 10.234375 -14.882812 10.828125 -14.625 C 11.429688 -14.363281 11.988281 -13.9375 12.5 -13.34375 L 10.671875 -11.453125 C 10.367188 -11.785156 10.03125 -12.019531 9.65625 -12.15625 C 9.28125 -12.300781 8.847656 -12.375 8.359375 -12.375 C 7.328125 -12.375 6.476562 -12.046875 5.8125 -11.390625 C 5.15625 -10.734375 4.828125 -9.734375 4.828125 -8.390625 Z M 4.828125 -8.390625 "/></g></g><g style="fill:#ffffff;fill-opacity:1;"><g transform="translate(245.41879, 187.160568)"><path style="stroke:none" d="M 4.296875 0 L 4.296875 -20.859375 L 7.09375 -20.859375 L 7.09375 0 Z M 0.6875 -12.171875 L 0.6875 -14.703125 L 10.703125 -14.703125 L 10.703125 -12.171875 Z M 0.6875 -12.171875 "/></g></g><g style="fill:#ffffff;fill-opacity:1;"><g transform="translate(256.498604, 187.160568)"><path style="stroke:none" d="M 6.71875 0.3125 C 5.894531 0.3125 5.113281 0.203125 4.375 -0.015625 C 3.644531 -0.234375 2.96875 -0.539062 2.34375 -0.9375 C 1.726562 -1.34375 1.195312 -1.828125 0.75 -2.390625 L 2.53125 -4.171875 C 3.070312 -3.515625 3.691406 -3.023438 4.390625 -2.703125 C 5.097656 -2.390625 5.882812 -2.234375 6.75 -2.234375 C 7.613281 -2.234375 8.28125 -2.378906 8.75 -2.671875 C 9.226562 -2.972656 9.46875 -3.394531 9.46875 -3.9375 C 9.46875 -4.46875 9.273438 -4.882812 8.890625 -5.1875 C 8.515625 -5.488281 8.023438 -5.734375 7.421875 -5.921875 C 6.828125 -6.117188 6.191406 -6.316406 5.515625 -6.515625 C 4.847656 -6.710938 4.210938 -6.960938 3.609375 -7.265625 C 3.015625 -7.578125 2.523438 -8 2.140625 -8.53125 C 1.765625 -9.070312 1.578125 -9.785156 1.578125 -10.671875 C 1.578125 -11.566406 1.789062 -12.335938 2.21875 -12.984375 C 2.65625 -13.628906 3.257812 -14.128906 4.03125 -14.484375 C 4.8125 -14.835938 5.75 -15.015625 6.84375 -15.015625 C 8 -15.015625 9.023438 -14.8125 9.921875 -14.40625 C 10.816406 -14.007812 11.554688 -13.40625 12.140625 -12.59375 L 10.34375 -10.796875 C 9.925781 -11.335938 9.410156 -11.75 8.796875 -12.03125 C 8.191406 -12.320312 7.507812 -12.46875 6.75 -12.46875 C 5.945312 -12.46875 5.332031 -12.328125 4.90625 -12.046875 C 4.476562 -11.773438 4.265625 -11.390625 4.265625 -10.890625 C 4.265625 -10.398438 4.453125 -10.019531 4.828125 -9.75 C 5.203125 -9.476562 5.691406 -9.25 6.296875 -9.0625 C 6.910156 -8.882812 7.546875 -8.695312 8.203125 -8.5 C 8.859375 -8.300781 9.484375 -8.035156 10.078125 -7.703125 C 10.679688 -7.378906 11.175781 -6.9375 11.5625 -6.375 C 11.945312 -5.820312 12.140625 -5.085938 12.140625 -4.171875 C 12.140625 -2.796875 11.644531 -1.703125 10.65625 -0.890625 C 9.675781 -0.0859375 8.363281 0.3125 6.71875 0.3125 Z M 6.71875 0.3125 "/></g></g></g></svg>