<?xml version="1.0" encoding="UTF-8"?>
<!DOCTYPE svg PUBLIC "-//W3C//DTD SVG 1.1//EN" "http://www.w3.org/Graphics/SVG/1.1/DTD/svg11.dtd">
<!-- Creator: CorelDRAW -->
<svg xmlns="http://www.w3.org/2000/svg" xml:space="preserve" width="8.06588in" height="8.06588in" version="1.1" style="shape-rendering:geometricPrecision; text-rendering:geometricPrecision; image-rendering:optimizeQuality; fill-rule:evenodd; clip-rule:evenodd"
viewBox="0 0 8.06027 8.06027"
 xmlns:xlink="http://www.w3.org/1999/xlink"
 xmlns:xodm="http://www.corel.com/coreldraw/odm/2003">
 <defs>
  <style type="text/css">
   <![CDATA[
    .fil0 {fill:#EEE6D6}
    .fil1 {fill:#13532E;fill-rule:nonzero}
    .fil2 {fill:url(#id0)}
   ]]>
  </style>
  <linearGradient id="id0" gradientUnits="userSpaceOnUse" x1="2.15302" y1="3.72657" x2="2.16019" y2="4.06347">
   <stop offset="0" style="stop-opacity:1; stop-color:#F5AC05"/>
   <stop offset="1" style="stop-opacity:1; stop-color:#FC7301"/>
  </linearGradient>
 </defs>
 <g id="Layer_x0020_1">
  <metadata id="CorelCorpID_0Corel-Layer"/>
  <rect class="fil0" width="8.06027" height="8.06027"/>
  <g id="_2672436019648">
   <path class="fil1" d="M1.64952 3.66691c-0.02065,-0.00329 -0.04153,-0.00493 -0.06242,-0.00493 -0.26187,0.00047 -0.39257,0.13094 -0.39257,0.39116l0 0.31279 0.17458 0 0 -0.33062c0,-0.14384 0.07204,-0.21588 0.21588,-0.21588 0.023,0 0.04435,0.00329 0.06453,0.00962l0 -0.16214zm1.03057 -0.33907l0 1.03808 0.17388 0 0 -1.03808 -0.17388 0zm0.91091 0.38224c-0.06641,-0.03262 -0.13915,-0.04881 -0.21799,-0.04881 -0.07884,0 -0.15182,0.01619 -0.21893,0.04857 -0.06711,0.03215 -0.12014,0.07626 -0.15909,0.13187 -0.03895,0.05561 -0.05749,0.11639 -0.05561,0.18185 0.00258,0.10183 0.04458,0.18748 0.12577,0.25718 0.08095,0.06969 0.18373,0.10442 0.30786,0.10442 0.04764,0 0.09503,-0.00798 0.14196,-0.0237 0.04693,-0.01572 0.08658,-0.03684 0.11873,-0.06289l0 0.06734 0.17387 0 0 -0.34235c0,-0.06547 -0.01948,-0.12624 -0.05843,-0.18185 -0.03895,-0.05561 -0.09174,-0.09949 -0.15815,-0.13164zm-0.21799 0.0962c0.07204,0 0.13305,0.02135 0.18326,0.06359 0.05022,0.04247 0.07603,0.09362 0.07744,0.1537 0.00164,0.05913 -0.02324,0.11005 -0.07462,0.15252 -0.05163,0.04271 -0.11357,0.06406 -0.18608,0.06406 -0.07157,0 -0.13234,-0.02112 -0.18256,-0.06335 -0.05021,-0.042 -0.07602,-0.09316 -0.0779,-0.15322 -0.00141,-0.0596 0.02347,-0.11075 0.07486,-0.15323 0.05139,-0.04271 0.11333,-0.06406 0.1856,-0.06406zm0.56151 -0.12366l0.29214 0.3217 -0.33672 0.36159 0.22691 0 0.22057 -0.23512 0.2201 0.23512 0.22667 0 -0.33742 -0.36159 0.29214 -0.3217 -0.22479 0 -0.17669 0.21095 -0.1774 -0.21095 -0.2255 0zm1.08619 0.5479c-0.01783,-0.01783 -0.03895,-0.02675 -0.06359,-0.02675 -0.02441,0 -0.04576,0.00892 -0.06359,0.02675 -0.01783,0.01783 -0.02675,0.03919 -0.02675,0.06382 0,0.0244 0.00892,0.04552 0.02675,0.06336 0.01783,0.01783 0.03919,0.02675 0.06359,0.02675 0.02464,0 0.04576,-0.00892 0.06359,-0.02675 0.01783,-0.01783 0.02675,-0.03895 0.02675,-0.06336 0,-0.02464 -0.00892,-0.04599 -0.02675,-0.06382zm0.69855 -0.51623c-0.06007,-0.03496 -0.12577,-0.05233 -0.1971,-0.05233 -0.07134,0 -0.13703,0.01737 -0.19734,0.05233 -0.06007,0.03473 -0.1077,0.08213 -0.14267,0.1422 -0.03472,0.06007 -0.05209,0.12554 -0.05209,0.19663l0 0.31279 0.17458 0 0 -0.34165c0,-0.06006 0.02089,-0.11099 0.06289,-0.15299 0.042,-0.042 0.09292,-0.06289 0.15299,-0.06289 0.06006,0 0.11099,0.02088 0.15299,0.06289 0.04177,0.042 0.06289,0.09292 0.06289,0.15299l0 0.34165 0.1774 0 0 -0.31279c0,-0.0711 -0.0176,-0.13656 -0.05233,-0.19663 -0.03472,-0.06007 -0.08236,-0.10746 -0.1422,-0.1422zm0.93061 -0.00422c-0.06687,-0.03168 -0.13962,-0.04764 -0.21822,-0.04787 -0.07861,-0.00024 -0.15158,0.01572 -0.21869,0.04787 -0.06711,0.03214 -0.12014,0.07603 -0.15885,0.13164 -0.03872,0.05561 -0.05725,0.11639 -0.05585,0.18185 0.00258,0.10183 0.04458,0.18748 0.12577,0.25718 0.08096,0.06969 0.18373,0.10442 0.30786,0.10442 0.04763,0 0.09526,-0.00798 0.14243,-0.0237 0.04716,-0.01572 0.08682,-0.03708 0.11897,-0.06359l0 0.07344c0,0.0596 -0.02464,0.11075 -0.07368,0.15299 -0.04904,0.04247 -0.10911,0.06359 -0.18021,0.06359 -0.05585,0 -0.10536,-0.01337 -0.14877,-0.04012 -0.04318,-0.02675 -0.07368,-0.06124 -0.09105,-0.10348l-0.16354 0.04951c0.02886,0.0711 0.08001,0.12859 0.15369,0.17247 0.07344,0.04411 0.15675,0.06594 0.24966,0.06617 0.1192,-0.00023 0.2201,-0.0352 0.30246,-0.10559 0.08259,-0.0704 0.12389,-0.15557 0.12389,-0.25553l0 -0.34775c0,-0.065 -0.01948,-0.12577 -0.05843,-0.18209 -0.03802,-0.05608 -0.09057,-0.09973 -0.15745,-0.1314zm-0.21799 0.0962c0.07204,0 0.13304,0.02135 0.18326,0.06359 0.05021,0.04247 0.07626,0.09362 0.07814,0.1537 0.00117,0.05913 -0.02394,0.11005 -0.07533,0.15252 -0.05162,0.04271 -0.11357,0.06406 -0.18607,0.06406 -0.07134,0 -0.13234,-0.02112 -0.18256,-0.06335 -0.04998,-0.042 -0.07603,-0.09316 -0.0779,-0.15322 -0.00141,-0.0596 0.02346,-0.11075 0.07485,-0.15323 0.05139,-0.04271 0.11333,-0.06406 0.18561,-0.06406z"/>
   <path class="fil2" d="M2.16196 3.66199c-0.05913,0 -0.11522,0.00962 -0.16801,0.02863 -0.01986,0.00712 -0.03867,0.01516 -0.05644,0.02414l0.0024 0.00007c0.0924,0.00262 0.18391,0.0053 0.27611,0.00962 -0.10385,0.00311 -0.21063,0.00855 -0.31734,0.01248 -0.01469,0.00944 -0.02853,0.01966 -0.04152,0.03066 -0.01712,0.01439 -0.03274,0.03005 -0.04685,0.04694 0.02269,0.00091 0.04522,0.00176 0.06747,0.00239 0.0924,0.00261 0.18391,0.0053 0.27611,0.00961 -0.11883,0.00356 -0.24149,0.01017 -0.3635,0.01407 -0.0093,0.01334 -0.01778,0.02733 -0.02545,0.04196 -0.01028,0.01992 -0.01844,0.04031 -0.02444,0.06119 0.04463,0.00175 0.08925,0.00381 0.13276,0.00504 0.0924,0.00262 0.18391,0.0053 0.27611,0.00962 -0.13588,0.00407 -0.27678,0.01213 -0.41596,0.01557 -0.00298,0.01624 -0.00468,0.03278 -0.00508,0.04961 -0.00188,0.065 0.01666,0.1253 0.05561,0.18068 0.03895,0.05561 0.09175,0.09926 0.15885,0.1314 0.06687,0.03215 0.13985,0.04858 0.21916,0.04951 0.10183,0.00094 0.18678,-0.01478 0.25483,-0.04669 0.06805,-0.03215 0.12037,-0.07204 0.15698,-0.11967l-0.16425 -0.05092c-0.06054,0.05327 -0.14314,0.0772 -0.24755,0.07227 -0.065,-0.00282 -0.12155,-0.02041 -0.16965,-0.05303 -0.04834,-0.03238 -0.07743,-0.07368 -0.08753,-0.12366l0.51083 0 0.17598 0c0.00216,-0.01094 0.00348,-0.0212 0.00399,-0.03098 -0.13057,-0.00367 -0.26127,-0.01016 -0.38882,-0.01521 0.0171,0.00314 0.22977,-0.00546 0.38893,-0.01151 -0.00094,-0.0267 -0.00532,-0.05259 -0.01314,-0.07765 -0.14704,-0.00326 -0.29478,-0.01077 -0.4385,-0.01646 0.01853,0.00341 0.2667,-0.00699 0.42758,-0.01297 -0.00844,-0.01954 -0.01907,-0.03853 -0.0319,-0.05695 -0.0169,-0.02428 -0.03653,-0.04632 -0.05889,-0.06613 -0.11416,-0.00377 -0.22813,-0.00928 -0.33967,-0.01371 0.01445,0.00266 0.16862,-0.00308 0.31209,-0.00857 -0.02201,-0.01622 -0.04622,-0.03062 -0.07263,-0.04323 -0.06734,-0.03215 -0.14032,-0.0481 -0.21869,-0.0481z"/>
  </g>
 </g>
</svg>
