<?xml version="1.0" encoding="UTF-8"?>
<!DOCTYPE svg PUBLIC "-//W3C//DTD SVG 1.1//EN" "http://www.w3.org/Graphics/SVG/1.1/DTD/svg11.dtd">
<!-- Creator: CorelDRAW -->
<svg xmlns="http://www.w3.org/2000/svg" xml:space="preserve" width="8.06588in" height="8.06588in" version="1.1" style="shape-rendering:geometricPrecision; text-rendering:geometricPrecision; image-rendering:optimizeQuality; fill-rule:evenodd; clip-rule:evenodd"
viewBox="0 0 7.14283 7.14283"
 xmlns:xlink="http://www.w3.org/1999/xlink"
 xmlns:xodm="http://www.corel.com/coreldraw/odm/2003">
 <defs>
  <style type="text/css">
   <![CDATA[
    .fil0 {fill:#13532E}
    .fil1 {fill:#EEE6D6;fill-rule:nonzero}
    .fil2 {fill:url(#id0)}
   ]]>
  </style>
  <linearGradient id="id0" gradientUnits="userSpaceOnUse" x1="1.90795" y1="3.3024" x2="1.91431" y2="3.60096">
   <stop offset="0" style="stop-opacity:1; stop-color:#F5AC05"/>
   <stop offset="1" style="stop-opacity:1; stop-color:#FC7301"/>
  </linearGradient>
 </defs>
 <g id="Layer_x0020_1">
  <metadata id="CorelCorpID_0Corel-Layer"/>
  <rect class="fil0" width="7.14283" height="7.14283"/>
  <g id="_2672163517968">
   <path class="fil1" d="M1.46176 3.24953c-0.0183,-0.00291 -0.03681,-0.00437 -0.05531,-0.00437 -0.23206,0.00041 -0.34788,0.11603 -0.34788,0.34663l0 0.27718 0.1547 0 0 -0.29298c0,-0.12747 0.06384,-0.19131 0.19131,-0.19131 0.02038,0 0.0393,0.00291 0.05718,0.00852l0 -0.14368zm0.91327 -0.30047l0 0.91992 0.15408 0 0 -0.91992 -0.15408 0zm0.80722 0.33873c-0.05885,-0.0289 -0.12331,-0.04325 -0.19318,-0.04325 -0.06987,0 -0.13454,0.01435 -0.19401,0.04304 -0.05947,0.02849 -0.10647,0.06758 -0.14098,0.11686 -0.03452,0.04928 -0.05095,0.10314 -0.04928,0.16115 0.00229,0.09024 0.03951,0.16614 0.11146,0.2279 0.07174,0.06176 0.16282,0.09253 0.27282,0.09253 0.04221,0 0.08422,-0.00707 0.12581,-0.021 0.04159,-0.01393 0.07673,-0.03265 0.10522,-0.05573l0 0.05968 0.15408 0 0 -0.30338c0,-0.05801 -0.01726,-0.11187 -0.05178,-0.16115 -0.03452,-0.04928 -0.0813,-0.08817 -0.14015,-0.11665zm-0.19318 0.08525c0.06384,0 0.11791,0.01892 0.1624,0.05635 0.0445,0.03764 0.06738,0.08297 0.06862,0.1362 0.00145,0.0524 -0.02059,0.09752 -0.06612,0.13516 -0.04575,0.03785 -0.10064,0.05677 -0.1649,0.05677 -0.06342,0 -0.11728,-0.01871 -0.16178,-0.05614 -0.0445,-0.03722 -0.06737,-0.08255 -0.06904,-0.13578 -0.00125,-0.05282 0.0208,-0.09815 0.06634,-0.13579 0.04554,-0.03785 0.10043,-0.05677 0.16448,-0.05677zm0.4976 -0.10958l0.25888 0.28508 -0.29839 0.32043 0.20108 0 0.19546 -0.20835 0.19505 0.20835 0.20087 0 -0.29902 -0.32043 0.25888 -0.28508 -0.19921 0 -0.15658 0.18694 -0.1572 -0.18694 -0.19983 0zm0.96255 0.48554c-0.0158,-0.0158 -0.03452,-0.0237 -0.05635,-0.0237 -0.02163,0 -0.04055,0.0079 -0.05636,0.0237 -0.0158,0.0158 -0.0237,0.03473 -0.0237,0.05656 0,0.02163 0.0079,0.04034 0.0237,0.05615 0.0158,0.0158 0.03473,0.0237 0.05636,0.0237 0.02183,0 0.04055,-0.0079 0.05635,-0.0237 0.0158,-0.0158 0.0237,-0.03452 0.0237,-0.05615 0,-0.02183 -0.0079,-0.04075 -0.0237,-0.05656zm0.61904 -0.45747c-0.05323,-0.03098 -0.11146,-0.04637 -0.17467,-0.04637 -0.06322,0 -0.12144,0.01539 -0.17488,0.04637 -0.05323,0.03078 -0.09545,0.07278 -0.12643,0.12601 -0.03077,0.05323 -0.04616,0.11125 -0.04616,0.17425l0 0.27718 0.1547 0 0 -0.30276c0,-0.05323 0.01851,-0.09835 0.05573,-0.13557 0.03722,-0.03722 0.08234,-0.05573 0.13558,-0.05573 0.05323,0 0.09835,0.01851 0.13557,0.05573 0.03701,0.03722 0.05573,0.08235 0.05573,0.13557l0 0.30276 0.1572 0 0 -0.27718c0,-0.063 -0.01559,-0.12102 -0.04637,-0.17425 -0.03077,-0.05323 -0.07299,-0.09523 -0.12601,-0.12601zm0.82469 -0.00374c-0.05926,-0.02807 -0.12372,-0.04221 -0.19338,-0.04242 -0.06966,-0.00021 -0.13433,0.01393 -0.1938,0.04242 -0.05947,0.02848 -0.10646,0.06737 -0.14077,0.11665 -0.03431,0.04928 -0.05073,0.10314 -0.04949,0.16115 0.00229,0.09024 0.03951,0.16614 0.11146,0.2279 0.07174,0.06176 0.16282,0.09253 0.27282,0.09253 0.04221,0 0.08442,-0.00707 0.12622,-0.021 0.0418,-0.01393 0.07694,-0.03286 0.10543,-0.05635l0 0.06509c0,0.05282 -0.02183,0.09815 -0.06529,0.13558 -0.04346,0.03764 -0.09669,0.05635 -0.1597,0.05635 -0.04949,0 -0.09336,-0.01185 -0.13183,-0.03555 -0.03826,-0.02371 -0.06529,-0.05427 -0.08068,-0.0917l-0.14493 0.04388c0.02558,0.06301 0.0709,0.11395 0.1362,0.15284 0.06509,0.03909 0.1389,0.05843 0.22125,0.05864 0.10563,-0.00021 0.19505,-0.03119 0.26804,-0.09357 0.07319,-0.06238 0.10979,-0.13786 0.10979,-0.22645l0 -0.30816c0,-0.0576 -0.01726,-0.11146 -0.05178,-0.16136 -0.03369,-0.0497 -0.08027,-0.08837 -0.13953,-0.11644zm-0.19317 0.08525c0.06384,0 0.1179,0.01892 0.1624,0.05635 0.0445,0.03764 0.06758,0.08297 0.06924,0.1362 0.00104,0.0524 -0.02121,0.09752 -0.06675,0.13516 -0.04575,0.03785 -0.10064,0.05677 -0.16489,0.05677 -0.06322,0 -0.11728,-0.01871 -0.16178,-0.05614 -0.04429,-0.03722 -0.06737,-0.08255 -0.06904,-0.13578 -0.00125,-0.05282 0.02079,-0.09815 0.06633,-0.13579 0.04554,-0.03785 0.10043,-0.05677 0.16448,-0.05677z"/>
   <path class="fil2" d="M1.91587 3.24517c-0.0524,0 -0.1021,0.00852 -0.14889,0.02537 -0.0176,0.00631 -0.03427,0.01344 -0.05002,0.02139l0.00212 0.00006c0.08188,0.00232 0.16298,0.00469 0.24468,0.00852 -0.09203,0.00276 -0.18666,0.00758 -0.28122,0.01106 -0.01301,0.00837 -0.02528,0.01742 -0.0368,0.02717 -0.01517,0.01275 -0.02901,0.02663 -0.04152,0.0416 0.0201,0.00081 0.04007,0.00156 0.05979,0.00212 0.08188,0.00232 0.16297,0.00469 0.24468,0.00852 -0.1053,0.00316 -0.21401,0.00902 -0.32212,0.01247 -0.00824,0.01182 -0.01576,0.02422 -0.02255,0.03719 -0.00911,0.01766 -0.01634,0.03572 -0.02165,0.05422 0.03955,0.00155 0.07909,0.00337 0.11765,0.00447 0.08188,0.00232 0.16297,0.0047 0.24468,0.00852 -0.12042,0.00361 -0.24527,0.01075 -0.36862,0.0138 -0.00264,0.0144 -0.00415,0.02905 -0.0045,0.04396 -0.00167,0.0576 0.01476,0.11104 0.04928,0.16012 0.03452,0.04928 0.0813,0.08796 0.14077,0.11644 0.05926,0.02849 0.12393,0.04305 0.19422,0.04387 0.09024,0.00083 0.16552,-0.0131 0.22582,-0.04138 0.0603,-0.02849 0.10667,-0.06384 0.13911,-0.10605l-0.14556 -0.04512c-0.05365,0.0472 -0.12684,0.06841 -0.21938,0.06405 -0.0576,-0.0025 -0.10771,-0.01809 -0.15034,-0.04699 -0.04283,-0.0287 -0.06862,-0.06529 -0.07756,-0.10959l0.45269 0 0.15595 0c0.00191,-0.0097 0.00309,-0.01879 0.00354,-0.02745 -0.11571,-0.00326 -0.23154,-0.00901 -0.34456,-0.01348 0.01515,0.00279 0.20362,-0.00484 0.34466,-0.0102 -0.00083,-0.02366 -0.00472,-0.0466 -0.01164,-0.06881 -0.1303,-0.00289 -0.26122,-0.00955 -0.38859,-0.01459 0.01642,0.00302 0.23634,-0.00619 0.37891,-0.01149 -0.00748,-0.01731 -0.0169,-0.03414 -0.02827,-0.05047 -0.01498,-0.02151 -0.03238,-0.04105 -0.05219,-0.0586 -0.10117,-0.00334 -0.20217,-0.00823 -0.301,-0.01215 0.01281,0.00236 0.14942,-0.00273 0.27657,-0.00759 -0.0195,-0.01437 -0.04096,-0.02714 -0.06436,-0.03831 -0.05968,-0.02849 -0.12435,-0.04263 -0.1938,-0.04263z"/>
  </g>
 </g>
</svg>
