<?xml version="1.0" encoding="UTF-8"?>
<!DOCTYPE svg PUBLIC "-//W3C//DTD SVG 1.1//EN" "http://www.w3.org/Graphics/SVG/1.1/DTD/svg11.dtd">
<!-- Creator: CorelDRAW -->
<svg xmlns="http://www.w3.org/2000/svg" xml:space="preserve" width="8.06588in" height="8.06588in" version="1.1" style="shape-rendering:geometricPrecision; text-rendering:geometricPrecision; image-rendering:optimizeQuality; fill-rule:evenodd; clip-rule:evenodd"
viewBox="0 0 2.47484 2.47484"
 xmlns:xlink="http://www.w3.org/1999/xlink"
 xmlns:xodm="http://www.corel.com/coreldraw/odm/2003">
 <defs>
  <style type="text/css">
   <![CDATA[
    .fil2 {fill:#EEE6D6}
    .fil0 {fill:#FC7301}
    .fil1 {fill:#EEE6D6;fill-rule:nonzero}
   ]]>
  </style>
 </defs>
 <g id="Layer_x0020_1">
  <metadata id="CorelCorpID_0Corel-Layer"/>
  <rect class="fil0" width="2.47484" height="2.47484"/>
  <g id="_2672454891584">
   <path class="fil1" d="M0.50647 1.12589c-0.00634,-0.00101 -0.01275,-0.00151 -0.01916,-0.00151 -0.0804,0.00014 -0.12053,0.0402 -0.12053,0.1201l0 0.09604 0.0536 0 0 -0.10151c0,-0.04417 0.02212,-0.06628 0.06628,-0.06628 0.00706,0 0.01362,0.00101 0.01981,0.00295l0 -0.04978zm0.31643 -0.10411l0 0.31873 0.05339 0 0 -0.31873 -0.05339 0zm0.27969 0.11736c-0.02039,-0.01001 -0.04272,-0.01499 -0.06693,-0.01499 -0.02421,0 -0.04661,0.00497 -0.06722,0.01491 -0.02061,0.00987 -0.03689,0.02342 -0.04885,0.04049 -0.01196,0.01707 -0.01765,0.03574 -0.01707,0.05584 0.00079,0.03127 0.01369,0.05756 0.03862,0.07896 0.02486,0.0214 0.05641,0.03206 0.09452,0.03206 0.01463,0 0.02918,-0.00245 0.04359,-0.00728 0.01441,-0.00483 0.02658,-0.01131 0.03646,-0.01931l0 0.02068 0.05339 0 0 -0.10512c0,-0.0201 -0.00598,-0.03876 -0.01794,-0.05584 -0.01196,-0.01707 -0.02817,-0.03055 -0.04856,-0.04042zm-0.06693 0.02954c0.02212,0 0.04085,0.00656 0.05627,0.01952 0.01542,0.01304 0.02334,0.02875 0.02378,0.04719 0.0005,0.01816 -0.00713,0.03379 -0.02291,0.04683 -0.01585,0.01311 -0.03487,0.01967 -0.05713,0.01967 -0.02197,0 -0.04063,-0.00648 -0.05605,-0.01945 -0.01542,-0.0129 -0.02334,-0.0286 -0.02392,-0.04705 -0.00043,-0.0183 0.00721,-0.03401 0.02298,-0.04705 0.01578,-0.01311 0.0348,-0.01967 0.05699,-0.01967zm0.17241 -0.03797l0.0897 0.09878 -0.10339 0.11102 0.06967 0 0.06772 -0.07219 0.06758 0.07219 0.0696 0 -0.1036 -0.11102 0.0897 -0.09878 -0.06902 0 -0.05425 0.06477 -0.05447 -0.06477 -0.06924 0zm0.3335 0.16823c-0.00547,-0.00548 -0.01196,-0.00821 -0.01952,-0.00821 -0.00749,0 -0.01405,0.00274 -0.01953,0.00821 -0.00547,0.00548 -0.00821,0.01203 -0.00821,0.0196 0,0.00749 0.00274,0.01398 0.00821,0.01945 0.00548,0.00548 0.01203,0.00821 0.01953,0.00821 0.00756,0 0.01405,-0.00274 0.01952,-0.00821 0.00548,-0.00548 0.00821,-0.01196 0.00821,-0.01945 0,-0.00756 -0.00274,-0.01412 -0.00821,-0.0196zm0.21448 -0.1585c-0.01844,-0.01073 -0.03862,-0.01607 -0.06052,-0.01607 -0.0219,0 -0.04208,0.00533 -0.06059,0.01607 -0.01844,0.01066 -0.03307,0.02522 -0.04381,0.04366 -0.01066,0.01844 -0.01599,0.03855 -0.01599,0.06038l0 0.09604 0.0536 0 0 -0.1049c0,-0.01844 0.00641,-0.03408 0.01931,-0.04697 0.0129,-0.0129 0.02853,-0.01931 0.04697,-0.01931 0.01844,0 0.03408,0.00641 0.04697,0.01931 0.01282,0.0129 0.01931,0.02853 0.01931,0.04697l0 0.1049 0.05447 0 0 -0.09604c0,-0.02183 -0.0054,-0.04193 -0.01607,-0.06038 -0.01066,-0.01844 -0.02529,-0.033 -0.04366,-0.04366zm0.28574 -0.0013c-0.02053,-0.00973 -0.04287,-0.01463 -0.067,-0.0147 -0.02414,-0.00007 -0.04654,0.00483 -0.06715,0.0147 -0.0206,0.00987 -0.03689,0.02334 -0.04877,0.04042 -0.01189,0.01707 -0.01758,0.03574 -0.01715,0.05584 0.00079,0.03127 0.01369,0.05756 0.03862,0.07896 0.02486,0.0214 0.05641,0.03206 0.09453,0.03206 0.01463,0 0.02925,-0.00245 0.04373,-0.00728 0.01448,-0.00483 0.02666,-0.01138 0.03653,-0.01952l0 0.02255c0,0.0183 -0.00756,0.03401 -0.02262,0.04697 -0.01506,0.01304 -0.0335,0.01952 -0.05533,0.01952 -0.01715,0 -0.03235,-0.00411 -0.04568,-0.01232 -0.01326,-0.00821 -0.02262,-0.0188 -0.02796,-0.03177l-0.05021 0.0152c0.00886,0.02183 0.02457,0.03948 0.04719,0.05295 0.02255,0.01355 0.04813,0.02025 0.07666,0.02032 0.0366,-0.00007 0.06758,-0.01081 0.09287,-0.03242 0.02536,-0.02161 0.03804,-0.04777 0.03804,-0.07846l0 -0.10677c0,-0.01996 -0.00598,-0.03862 -0.01794,-0.05591 -0.01167,-0.01722 -0.02781,-0.03062 -0.04834,-0.04035zm-0.06693 0.02954c0.02212,0 0.04085,0.00656 0.05627,0.01952 0.01542,0.01304 0.02342,0.02875 0.02399,0.04719 0.00036,0.01816 -0.00735,0.03379 -0.02313,0.04683 -0.01585,0.01311 -0.03487,0.01967 -0.05713,0.01967 -0.0219,0 -0.04063,-0.00648 -0.05605,-0.01945 -0.01535,-0.0129 -0.02334,-0.0286 -0.02392,-0.04705 -0.00043,-0.0183 0.0072,-0.03401 0.02298,-0.04705 0.01578,-0.01311 0.0348,-0.01967 0.05699,-0.01967z"/>
   <path class="fil2" d="M0.66381 1.12438c-0.01816,0 -0.03538,0.00295 -0.05159,0.00879 -0.0061,0.00219 -0.01187,0.00466 -0.01733,0.00741l0.00074 0.00002c0.02837,0.0008 0.05647,0.00163 0.08478,0.00295 -0.03189,0.00096 -0.06467,0.00263 -0.09744,0.00383 -0.00451,0.0029 -0.00876,0.00604 -0.01275,0.00942 -0.00526,0.00442 -0.01005,0.00923 -0.01439,0.01441 0.00697,0.00028 0.01388,0.00054 0.02072,0.00073 0.02837,0.0008 0.05647,0.00163 0.08478,0.00295 -0.03648,0.00109 -0.07415,0.00312 -0.11161,0.00432 -0.00286,0.0041 -0.00546,0.00839 -0.00781,0.01288 -0.00316,0.00612 -0.00566,0.01238 -0.0075,0.01879 0.0137,0.00054 0.0274,0.00117 0.04076,0.00155 0.02837,0.0008 0.05647,0.00163 0.08478,0.00295 -0.04172,0.00125 -0.08498,0.00373 -0.12772,0.00478 -0.00091,0.00499 -0.00144,0.01006 -0.00156,0.01523 -0.00058,0.01996 0.00511,0.03847 0.01707,0.05548 0.01196,0.01707 0.02817,0.03048 0.04877,0.04035 0.02053,0.00987 0.04294,0.01492 0.06729,0.0152 0.03127,0.00029 0.05735,-0.00454 0.07824,-0.01434 0.02089,-0.00987 0.03696,-0.02212 0.0482,-0.03674l-0.05043 -0.01563c-0.01859,0.01635 -0.04395,0.0237 -0.07601,0.02219 -0.01996,-0.00086 -0.03732,-0.00627 -0.05209,-0.01628 -0.01484,-0.00994 -0.02378,-0.02262 -0.02687,-0.03797l0.15685 0 0.05403 0c0.00066,-0.00336 0.00107,-0.00651 0.00122,-0.00951 -0.04009,-0.00113 -0.08022,-0.00312 -0.11938,-0.00467 0.00525,0.00097 0.07055,-0.00168 0.11942,-0.00353 -0.00029,-0.0082 -0.00163,-0.01615 -0.00403,-0.02384 -0.04515,-0.001 -0.09051,-0.00331 -0.13464,-0.00506 0.00569,0.00105 0.08189,-0.00215 0.13129,-0.00398 -0.00259,-0.006 -0.00586,-0.01183 -0.0098,-0.01749 -0.00519,-0.00745 -0.01122,-0.01422 -0.01808,-0.0203 -0.03505,-0.00116 -0.07005,-0.00285 -0.10429,-0.00421 0.00444,0.00082 0.05177,-0.00094 0.09583,-0.00263 -0.00676,-0.00498 -0.01419,-0.0094 -0.0223,-0.01327 -0.02068,-0.00987 -0.04308,-0.01477 -0.06715,-0.01477z"/>
  </g>
 </g>
</svg>
