<?xml version="1.0" encoding="UTF-8"?>
<!DOCTYPE svg PUBLIC "-//W3C//DTD SVG 1.1//EN" "http://www.w3.org/Graphics/SVG/1.1/DTD/svg11.dtd">
<!-- Creator: CorelDRAW -->
<svg xmlns="http://www.w3.org/2000/svg" xml:space="preserve" width="8.07282in" height="8.07282in" version="1.1" style="shape-rendering:geometricPrecision; text-rendering:geometricPrecision; image-rendering:optimizeQuality; fill-rule:evenodd; clip-rule:evenodd"
viewBox="0 0 1.06965 1.06965"
 xmlns:xlink="http://www.w3.org/1999/xlink"
 xmlns:xodm="http://www.corel.com/coreldraw/odm/2003">
 <defs>
  <style type="text/css">
   <![CDATA[
    .str0 {stroke:black;stroke-width:0.00092;stroke-miterlimit:2.61313}
    .fil2 {fill:black}
    .fil0 {fill:white}
    .fil1 {fill:black;fill-rule:nonzero}
   ]]>
  </style>
 </defs>
 <g id="Layer_x0020_1">
  <metadata id="CorelCorpID_0Corel-Layer"/>
  <rect class="fil0 str0" x="0.00046" y="0.00046" width="1.06873" height="1.06873"/>
  <g id="_2672454870656">
   <path class="fil1" d="M0.21917 0.48667c-0.00274,-0.00044 -0.00551,-0.00065 -0.00828,-0.00065 -0.03472,0.00006 -0.05205,0.01736 -0.05205,0.05186l0 0.04147 0.02315 0 0 -0.04384c0,-0.01907 0.00955,-0.02862 0.02862,-0.02862 0.00305,0 0.00588,0.00044 0.00856,0.00128l0 -0.0215zm0.13665 -0.04496l0 0.13764 0.02305 0 0 -0.13764 -0.02305 0zm0.12078 0.05068c-0.00881,-0.00432 -0.01845,-0.00647 -0.0289,-0.00647 -0.01045,0 -0.02013,0.00215 -0.02903,0.00644 -0.0089,0.00426 -0.01593,0.01011 -0.02109,0.01749 -0.00516,0.00737 -0.00762,0.01543 -0.00737,0.02411 0.00034,0.0135 0.00591,0.02486 0.01668,0.0341 0.01073,0.00924 0.02436,0.01384 0.04082,0.01384 0.00632,0 0.0126,-0.00106 0.01882,-0.00314 0.00622,-0.00208 0.01148,-0.00488 0.01574,-0.00834l0 0.00893 0.02305 0 0 -0.04539c0,-0.00868 -0.00258,-0.01674 -0.00775,-0.02411 -0.00516,-0.00737 -0.01216,-0.01319 -0.02097,-0.01745zm-0.0289 0.01276c0.00955,0 0.01764,0.00283 0.0243,0.00843 0.00666,0.00563 0.01008,0.01241 0.01027,0.02038 0.00022,0.00784 -0.00308,0.01459 -0.00989,0.02022 -0.00685,0.00566 -0.01506,0.00849 -0.02467,0.00849 -0.00949,0 -0.01755,-0.0028 -0.02421,-0.0084 -0.00666,-0.00557 -0.01008,-0.01235 -0.01033,-0.02032 -0.00019,-0.0079 0.00311,-0.01469 0.00993,-0.02032 0.00681,-0.00566 0.01503,-0.00849 0.02461,-0.00849zm0.07445 -0.0164l0.03874 0.04266 -0.04465 0.04794 0.03009 0 0.02925 -0.03117 0.02918 0.03117 0.03005 0 -0.04474 -0.04794 0.03874 -0.04266 -0.02981 0 -0.02343 0.02797 -0.02352 -0.02797 -0.0299 0zm0.14402 0.07265c-0.00236,-0.00236 -0.00516,-0.00355 -0.00843,-0.00355 -0.00324,0 -0.00607,0.00118 -0.00843,0.00355 -0.00236,0.00236 -0.00355,0.0052 -0.00355,0.00846 0,0.00324 0.00118,0.00604 0.00355,0.0084 0.00236,0.00236 0.0052,0.00355 0.00843,0.00355 0.00327,0 0.00607,-0.00118 0.00843,-0.00355 0.00236,-0.00236 0.00355,-0.00516 0.00355,-0.0084 0,-0.00327 -0.00118,-0.0061 -0.00355,-0.00846zm0.09262 -0.06845c-0.00796,-0.00464 -0.01668,-0.00694 -0.02613,-0.00694 -0.00946,0 -0.01817,0.0023 -0.02617,0.00694 -0.00796,0.00461 -0.01428,0.01089 -0.01892,0.01885 -0.0046,0.00797 -0.00691,0.01665 -0.00691,0.02607l0 0.04147 0.02315 0 0 -0.0453c0,-0.00796 0.00277,-0.01472 0.00834,-0.02029 0.00557,-0.00557 0.01232,-0.00834 0.02029,-0.00834 0.00796,0 0.01472,0.00277 0.02029,0.00834 0.00554,0.00557 0.00834,0.01232 0.00834,0.02029l0 0.0453 0.02352 0 0 -0.04147c0,-0.00943 -0.00233,-0.01811 -0.00694,-0.02607 -0.0046,-0.00796 -0.01092,-0.01425 -0.01885,-0.01885zm0.12339 -0.00056c-0.00887,-0.0042 -0.01851,-0.00632 -0.02893,-0.00635 -0.01042,-0.00003 -0.0201,0.00208 -0.029,0.00635 -0.0089,0.00426 -0.01593,0.01008 -0.02106,0.01745 -0.00513,0.00737 -0.00759,0.01543 -0.0074,0.02411 0.00034,0.0135 0.00591,0.02486 0.01668,0.0341 0.01073,0.00924 0.02436,0.01384 0.04082,0.01384 0.00632,0 0.01263,-0.00106 0.01888,-0.00314 0.00625,-0.00208 0.01151,-0.00492 0.01577,-0.00843l0 0.00974c0,0.0079 -0.00327,0.01469 -0.00977,0.02029 -0.0065,0.00563 -0.01447,0.00843 -0.02389,0.00843 -0.0074,0 -0.01397,-0.00177 -0.01973,-0.00532 -0.00573,-0.00355 -0.00977,-0.00812 -0.01207,-0.01372l-0.02168 0.00657c0.00383,0.00943 0.01061,0.01705 0.02038,0.02287 0.00974,0.00585 0.02078,0.00874 0.0331,0.00877 0.01581,-0.00003 0.02918,-0.00467 0.0401,-0.014 0.01095,-0.00933 0.01643,-0.02063 0.01643,-0.03388l0 -0.04611c0,-0.00862 -0.00258,-0.01668 -0.00775,-0.02414 -0.00504,-0.00744 -0.01201,-0.01322 -0.02088,-0.01742zm-0.0289 0.01276c0.00955,0 0.01764,0.00283 0.0243,0.00843 0.00666,0.00563 0.01011,0.01241 0.01036,0.02038 0.00016,0.00784 -0.00317,0.01459 -0.00999,0.02022 -0.00684,0.00566 -0.01506,0.00849 -0.02467,0.00849 -0.00946,0 -0.01755,-0.0028 -0.02421,-0.0084 -0.00663,-0.00557 -0.01008,-0.01235 -0.01033,-0.02032 -0.00019,-0.0079 0.00311,-0.01469 0.00992,-0.02032 0.00681,-0.00566 0.01503,-0.00849 0.02461,-0.00849z"/>
   <path class="fil2" d="M0.28712 0.48601c-0.00784,0 -0.01528,0.00128 -0.02228,0.0038 -0.00263,0.00094 -0.00513,0.00201 -0.00748,0.0032l0.00032 0.00001c0.01225,0.00035 0.02439,0.0007 0.03661,0.00127 -0.01377,0.00041 -0.02793,0.00113 -0.04208,0.00165 -0.00195,0.00125 -0.00378,0.00261 -0.00551,0.00407 -0.00227,0.00191 -0.00434,0.00398 -0.00621,0.00622 0.00301,0.00012 0.006,0.00023 0.00895,0.00032 0.01225,0.00035 0.02438,0.0007 0.03661,0.00127 -0.01576,0.00047 -0.03202,0.00135 -0.0482,0.00187 -0.00123,0.00177 -0.00236,0.00362 -0.00337,0.00556 -0.00136,0.00264 -0.00245,0.00534 -0.00324,0.00811 0.00592,0.00023 0.01183,0.0005 0.0176,0.00067 0.01225,0.00035 0.02438,0.0007 0.03661,0.00127 -0.01802,0.00054 -0.0367,0.00161 -0.05515,0.00206 -0.00039,0.00215 -0.00062,0.00435 -0.00067,0.00658 -0.00025,0.00862 0.00221,0.01661 0.00737,0.02396 0.00516,0.00737 0.01217,0.01316 0.02106,0.01742 0.00887,0.00426 0.01854,0.00644 0.02906,0.00656 0.0135,0.00012 0.02477,-0.00196 0.03379,-0.00619 0.00902,-0.00426 0.01596,-0.00955 0.02081,-0.01587l-0.02178 -0.00675c-0.00803,0.00706 -0.01898,0.01024 -0.03282,0.00958 -0.00862,-0.00037 -0.01612,-0.00271 -0.02249,-0.00703 -0.00641,-0.00429 -0.01027,-0.00977 -0.01161,-0.0164l0.06773 0 0.02333 0c0.00029,-0.00145 0.00046,-0.00281 0.00053,-0.00411 -0.01731,-0.00049 -0.03464,-0.00135 -0.05155,-0.00202 0.00227,0.00042 0.03047,-0.00072 0.05157,-0.00153 -0.00012,-0.00354 -0.00071,-0.00697 -0.00174,-0.0103 -0.0195,-0.00043 -0.03909,-0.00143 -0.05814,-0.00218 0.00246,0.00045 0.03536,-0.00093 0.05669,-0.00172 -0.00112,-0.00259 -0.00253,-0.00511 -0.00423,-0.00755 -0.00224,-0.00322 -0.00484,-0.00614 -0.00781,-0.00877 -0.01514,-0.0005 -0.03025,-0.00123 -0.04504,-0.00182 0.00192,0.00035 0.02236,-0.00041 0.04138,-0.00114 -0.00292,-0.00215 -0.00613,-0.00406 -0.00963,-0.00573 -0.00893,-0.00426 -0.01861,-0.00638 -0.029,-0.00638z"/>
  </g>
 </g>
</svg>
