<?xml version="1.0" encoding="UTF-8"?>
<!DOCTYPE svg PUBLIC "-//W3C//DTD SVG 1.1//EN" "http://www.w3.org/Graphics/SVG/1.1/DTD/svg11.dtd">
<!-- Creator: CorelDRAW -->
<svg xmlns="http://www.w3.org/2000/svg" xml:space="preserve" width="8.07282in" height="8.07282in" version="1.1" style="shape-rendering:geometricPrecision; text-rendering:geometricPrecision; image-rendering:optimizeQuality; fill-rule:evenodd; clip-rule:evenodd"
viewBox="0 0 0.83133 0.83133"
 xmlns:xlink="http://www.w3.org/1999/xlink"
 xmlns:xodm="http://www.corel.com/coreldraw/odm/2003">
 <defs>
  <style type="text/css">
   <![CDATA[
    .str0 {stroke:black;stroke-width:0.00072;stroke-miterlimit:2.61313}
    .fil0 {fill:black}
    .fil2 {fill:white}
    .fil1 {fill:white;fill-rule:nonzero}
   ]]>
  </style>
 </defs>
 <g id="Layer_x0020_1">
  <metadata id="CorelCorpID_0Corel-Layer"/>
  <rect class="fil0 str0" x="0.00036" y="0.00036" width="0.83062" height="0.83062"/>
  <g id="_2671831291248">
   <path class="fil1" d="M0.17034 0.37824c-0.00213,-0.00034 -0.00428,-0.00051 -0.00643,-0.00051 -0.02699,0.00005 -0.04045,0.01349 -0.04045,0.04031l0 0.03223 0.01799 0 0 -0.03407c0,-0.01482 0.00742,-0.02225 0.02225,-0.02225 0.00237,0 0.00457,0.00034 0.00665,0.00099l0 -0.01671zm0.1062 -0.03494l0 0.10698 0.01792 0 0 -0.10698 -0.01792 0zm0.09387 0.03939c-0.00684,-0.00336 -0.01434,-0.00503 -0.02246,-0.00503 -0.00812,0 -0.01564,0.00167 -0.02256,0.00501 -0.00692,0.00331 -0.01238,0.00786 -0.01639,0.01359 -0.00401,0.00573 -0.00592,0.01199 -0.00573,0.01874 0.00027,0.01049 0.00459,0.01932 0.01296,0.0265 0.00834,0.00718 0.01893,0.01076 0.03172,0.01076 0.00491,0 0.00979,-0.00082 0.01463,-0.00244 0.00484,-0.00162 0.00892,-0.0038 0.01224,-0.00648l0 0.00694 0.01792 0 0 -0.03528c0,-0.00675 -0.00201,-0.01301 -0.00602,-0.01874 -0.00401,-0.00573 -0.00945,-0.01025 -0.0163,-0.01357zm-0.02246 0.00991c0.00742,0 0.01371,0.0022 0.01888,0.00655 0.00517,0.00438 0.00783,0.00965 0.00798,0.01584 0.00017,0.00609 -0.00239,0.01134 -0.00769,0.01572 -0.00532,0.0044 -0.0117,0.0066 -0.01918,0.0066 -0.00738,0 -0.01364,-0.00218 -0.01881,-0.00653 -0.00517,-0.00433 -0.00783,-0.0096 -0.00803,-0.01579 -0.00015,-0.00614 0.00242,-0.01141 0.00771,-0.01579 0.0053,-0.0044 0.01168,-0.0066 0.01913,-0.0066zm0.05786 -0.01274l0.0301 0.03315 -0.0347 0.03726 0.02338 0 0.02273 -0.02423 0.02268 0.02423 0.02336 0 -0.03477 -0.03726 0.0301 -0.03315 -0.02317 0 -0.01821 0.02174 -0.01828 -0.02174 -0.02324 0zm0.11193 0.05646c-0.00184,-0.00184 -0.00401,-0.00276 -0.00655,-0.00276 -0.00252,0 -0.00472,0.00092 -0.00655,0.00276 -0.00184,0.00184 -0.00276,0.00404 -0.00276,0.00658 0,0.00251 0.00092,0.00469 0.00276,0.00653 0.00184,0.00184 0.00404,0.00276 0.00655,0.00276 0.00254,0 0.00472,-0.00092 0.00655,-0.00276 0.00184,-0.00184 0.00276,-0.00401 0.00276,-0.00653 0,-0.00254 -0.00092,-0.00474 -0.00276,-0.00658zm0.07199 -0.0532c-0.00619,-0.0036 -0.01296,-0.00539 -0.02031,-0.00539 -0.00735,0 -0.01412,0.00179 -0.02034,0.00539 -0.00619,0.00358 -0.0111,0.00846 -0.0147,0.01465 -0.00358,0.00619 -0.00537,0.01294 -0.00537,0.02026l0 0.03223 0.01799 0 0 -0.03521c0,-0.00619 0.00215,-0.01144 0.00648,-0.01577 0.00433,-0.00433 0.00958,-0.00648 0.01577,-0.00648 0.00619,0 0.01144,0.00215 0.01577,0.00648 0.0043,0.00433 0.00648,0.00958 0.00648,0.01577l0 0.03521 0.01828 0 0 -0.03223c0,-0.00733 -0.00181,-0.01407 -0.00539,-0.02026 -0.00358,-0.00619 -0.00849,-0.01107 -0.01465,-0.01465zm0.0959 -0.00044c-0.00689,-0.00326 -0.01439,-0.00491 -0.02249,-0.00493 -0.0081,-0.00002 -0.01562,0.00162 -0.02254,0.00493 -0.00692,0.00331 -0.01238,0.00783 -0.01637,0.01357 -0.00399,0.00573 -0.0059,0.01199 -0.00576,0.01874 0.00027,0.01049 0.00459,0.01932 0.01296,0.0265 0.00834,0.00718 0.01893,0.01076 0.03173,0.01076 0.00491,0 0.00982,-0.00082 0.01468,-0.00244 0.00486,-0.00162 0.00895,-0.00382 0.01226,-0.00655l0 0.00757c0,0.00614 -0.00254,0.01141 -0.00759,0.01577 -0.00505,0.00438 -0.01124,0.00655 -0.01857,0.00655 -0.00576,0 -0.01086,-0.00138 -0.01533,-0.00413 -0.00445,-0.00276 -0.00759,-0.00631 -0.00938,-0.01066l-0.01685 0.0051c0.00297,0.00733 0.00825,0.01325 0.01584,0.01777 0.00757,0.00455 0.01615,0.0068 0.02573,0.00682 0.01228,-0.00002 0.02268,-0.00363 0.03117,-0.01088 0.00851,-0.00725 0.01277,-0.01603 0.01277,-0.02633l0 -0.03584c0,-0.0067 -0.00201,-0.01296 -0.00602,-0.01876 -0.00392,-0.00578 -0.00933,-0.01028 -0.01623,-0.01354zm-0.02246 0.00991c0.00742,0 0.01371,0.0022 0.01888,0.00655 0.00517,0.00438 0.00786,0.00965 0.00805,0.01584 0.00012,0.00609 -0.00247,0.01134 -0.00776,0.01572 -0.00532,0.0044 -0.0117,0.0066 -0.01917,0.0066 -0.00735,0 -0.01364,-0.00218 -0.01881,-0.00653 -0.00515,-0.00433 -0.00783,-0.0096 -0.00803,-0.01579 -0.00015,-0.00614 0.00242,-0.01141 0.00771,-0.01579 0.0053,-0.0044 0.01168,-0.0066 0.01913,-0.0066z"/>
   <path class="fil2" d="M0.22315 0.37773c-0.00609,0 -0.01187,0.00099 -0.01731,0.00295 -0.00205,0.00073 -0.00398,0.00156 -0.00582,0.00249l0.00025 0.00001c0.00952,0.00027 0.01895,0.00055 0.02845,0.00099 -0.0107,0.00032 -0.02171,0.00088 -0.0327,0.00129 -0.00151,0.00097 -0.00294,0.00203 -0.00428,0.00316 -0.00176,0.00148 -0.00337,0.0031 -0.00483,0.00484 0.00234,0.00009 0.00466,0.00018 0.00695,0.00025 0.00952,0.00027 0.01895,0.00055 0.02845,0.00099 -0.01225,0.00037 -0.02489,0.00105 -0.03746,0.00145 -0.00096,0.00137 -0.00183,0.00282 -0.00262,0.00432 -0.00106,0.00205 -0.0019,0.00415 -0.00252,0.00631 0.0046,0.00018 0.0092,0.00039 0.01368,0.00052 0.00952,0.00027 0.01895,0.00055 0.02845,0.00099 -0.014,0.00042 -0.02852,0.00125 -0.04287,0.0016 -0.00031,0.00167 -0.00048,0.00338 -0.00052,0.00511 -0.00019,0.0067 0.00172,0.01291 0.00573,0.01862 0.00401,0.00573 0.00945,0.01023 0.01637,0.01354 0.00689,0.00331 0.01441,0.00501 0.02258,0.0051 0.01049,0.0001 0.01925,-0.00152 0.02626,-0.00481 0.00701,-0.00331 0.0124,-0.00742 0.01618,-0.01233l-0.01693 -0.00525c-0.00624,0.00549 -0.01475,0.00796 -0.02551,0.00745 -0.0067,-0.00029 -0.01253,-0.0021 -0.01748,-0.00546 -0.00498,-0.00334 -0.00798,-0.00759 -0.00902,-0.01274l0.05264 0 0.01814 0c0.00022,-0.00113 0.00036,-0.00218 0.00041,-0.00319 -0.01346,-0.00038 -0.02692,-0.00105 -0.04007,-0.00157 0.00176,0.00032 0.02368,-0.00056 0.04008,-0.00119 -0.0001,-0.00275 -0.00055,-0.00542 -0.00135,-0.008 -0.01515,-0.00034 -0.03038,-0.00111 -0.04519,-0.0017 0.00191,0.00035 0.02748,-0.00072 0.04406,-0.00134 -0.00087,-0.00201 -0.00197,-0.00397 -0.00329,-0.00587 -0.00174,-0.0025 -0.00376,-0.00477 -0.00607,-0.00681 -0.01176,-0.00039 -0.02351,-0.00096 -0.035,-0.00141 0.00149,0.00027 0.01738,-0.00032 0.03216,-0.00088 -0.00227,-0.00167 -0.00476,-0.00316 -0.00748,-0.00446 -0.00694,-0.00331 -0.01446,-0.00496 -0.02254,-0.00496z"/>
  </g>
 </g>
</svg>
