<?xml version="1.0" encoding="UTF-8"?>
<!DOCTYPE svg PUBLIC "-//W3C//DTD SVG 1.1//EN" "http://www.w3.org/Graphics/SVG/1.1/DTD/svg11.dtd">
<!-- Creator: CorelDRAW -->
<svg xmlns="http://www.w3.org/2000/svg" xml:space="preserve" width="8.07282in" height="8.07282in" version="1.1" style="shape-rendering:geometricPrecision; text-rendering:geometricPrecision; image-rendering:optimizeQuality; fill-rule:evenodd; clip-rule:evenodd"
viewBox="0 0 1.49953 1.49953"
 xmlns:xlink="http://www.w3.org/1999/xlink"
 xmlns:xodm="http://www.corel.com/coreldraw/odm/2003">
 <defs>
  <style type="text/css">
   <![CDATA[
    .str0 {stroke:black;stroke-width:0.00129;stroke-miterlimit:2.61313}
    .fil1 {fill:black}
    .fil3 {fill:#13532E}
    .fil0 {fill:white}
    .fil2 {fill:url(#id0)}
    .fil4 {fill:url(#id1)}
   ]]>
  </style>
  <linearGradient id="id0" gradientUnits="userSpaceOnUse" x1="0.44894" y1="0.65608" x2="0.4512" y2="0.76218">
   <stop offset="0" style="stop-opacity:1; stop-color:#F5AC05"/>
   <stop offset="1" style="stop-opacity:1; stop-color:#FC7301"/>
  </linearGradient>
  <linearGradient id="id1" gradientUnits="userSpaceOnUse" xlink:href="#id0" x1="1.04551" y1="0.65608" x2="1.04777" y2="0.76218">
  </linearGradient>
 </defs>
 <g id="Layer_x0020_1">
  <metadata id="CorelCorpID_0Corel-Layer"/>
  <rect class="fil0 str0" x="0.00064" y="0.00064" width="1.49824" height="1.49824"/>
  <rect class="fil1" x="0.18017" y="0.47846" width="0.54262" height="0.54262" rx="0.11849" ry="0.11849"/>
  <path class="fil2" d="M0.45176 0.63575c-0.01862,0 -0.03628,0.00303 -0.05291,0.00902 -0.00626,0.00224 -0.01218,0.00477 -0.01777,0.0076l0.00075 0.00002c0.0291,0.00082 0.05792,0.00167 0.08695,0.00303 -0.0327,0.00098 -0.06633,0.00269 -0.09994,0.00393 -0.00462,0.00297 -0.00898,0.00619 -0.01308,0.00966 -0.00539,0.00453 -0.01031,0.00946 -0.01476,0.01478 0.00714,0.00029 0.01424,0.00055 0.02125,0.00075 0.0291,0.00082 0.05792,0.00167 0.08695,0.00303 -0.03742,0.00112 -0.07605,0.0032 -0.11447,0.00443 -0.00293,0.0042 -0.0056,0.00861 -0.00801,0.01321 -0.00324,0.00627 -0.00581,0.0127 -0.0077,0.01927 0.01405,0.00055 0.02811,0.0012 0.04181,0.00159 0.0291,0.00082 0.05792,0.00167 0.08695,0.00303 -0.04279,0.00128 -0.08716,0.00382 -0.13099,0.0049 -0.00094,0.00511 -0.00147,0.01032 -0.0016,0.01562 -0.00059,0.02047 0.00525,0.03946 0.01751,0.0569 0.01227,0.01751 0.02889,0.03126 0.05003,0.04138 0.02106,0.01012 0.04404,0.0153 0.06902,0.01559 0.03207,0.0003 0.05882,-0.00465 0.08025,-0.0147 0.02143,-0.01012 0.03791,-0.02269 0.04944,-0.03769l-0.05173 -0.01603c-0.01906,0.01677 -0.04508,0.02431 -0.07796,0.02276 -0.02047,-0.00089 -0.03828,-0.00643 -0.05342,-0.0167 -0.01522,-0.0102 -0.02439,-0.0232 -0.02756,-0.03894l0.16087 0 0.05542 0c0.00068,-0.00345 0.0011,-0.00668 0.00125,-0.00976 -0.04112,-0.00116 -0.08228,-0.0032 -0.12244,-0.00479 0.00538,0.00099 0.07236,-0.00172 0.12248,-0.00363 -0.0003,-0.00841 -0.00168,-0.01656 -0.00414,-0.02445 -0.0463,-0.00103 -0.09283,-0.00339 -0.13809,-0.00519 0.00584,0.00107 0.08399,-0.0022 0.13465,-0.00408 -0.00266,-0.00615 -0.00601,-0.01213 -0.01005,-0.01794 -0.00532,-0.00765 -0.0115,-0.01459 -0.01855,-0.02082 -0.03595,-0.00119 -0.07184,-0.00292 -0.10696,-0.00432 0.00455,0.00084 0.0531,-0.00097 0.09828,-0.0027 -0.00693,-0.00511 -0.01456,-0.00965 -0.02287,-0.01362 -0.02121,-0.01012 -0.04419,-0.01515 -0.06887,-0.01515z"/>
  <rect class="fil3" x="0.77674" y="0.47846" width="0.54262" height="0.54262" rx="0.11849" ry="0.11849"/>
  <path class="fil4" d="M1.04833 0.63575c-0.01862,0 -0.03628,0.00303 -0.05291,0.00902 -0.00626,0.00224 -0.01218,0.00477 -0.01777,0.0076l0.00075 0.00002c0.0291,0.00082 0.05792,0.00167 0.08695,0.00303 -0.0327,0.00098 -0.06633,0.00269 -0.09994,0.00393 -0.00462,0.00297 -0.00898,0.00619 -0.01308,0.00966 -0.00539,0.00453 -0.01031,0.00946 -0.01475,0.01478 0.00714,0.00029 0.01424,0.00055 0.02125,0.00075 0.0291,0.00082 0.05792,0.00167 0.08695,0.00303 -0.03742,0.00112 -0.07605,0.0032 -0.11447,0.00443 -0.00293,0.0042 -0.0056,0.00861 -0.00801,0.01321 -0.00324,0.00627 -0.00581,0.0127 -0.00769,0.01927 0.01405,0.00055 0.02811,0.0012 0.04181,0.00159 0.0291,0.00082 0.05792,0.00167 0.08695,0.00303 -0.04279,0.00128 -0.08716,0.00382 -0.13099,0.0049 -0.00094,0.00511 -0.00147,0.01032 -0.0016,0.01562 -0.00059,0.02047 0.00525,0.03946 0.01751,0.0569 0.01227,0.01751 0.02889,0.03126 0.05003,0.04138 0.02106,0.01012 0.04404,0.0153 0.06902,0.01559 0.03207,0.0003 0.05882,-0.00465 0.08025,-0.0147 0.02143,-0.01012 0.03791,-0.02269 0.04943,-0.03769l-0.05172 -0.01603c-0.01906,0.01677 -0.04508,0.02431 -0.07796,0.02276 -0.02047,-0.00089 -0.03828,-0.00643 -0.05342,-0.0167 -0.01522,-0.0102 -0.02439,-0.0232 -0.02756,-0.03894l0.16087 0 0.05542 0c0.00068,-0.00345 0.0011,-0.00668 0.00126,-0.00976 -0.04112,-0.00116 -0.08228,-0.0032 -0.12244,-0.00479 0.00538,0.00099 0.07236,-0.00172 0.12248,-0.00363 -0.0003,-0.00841 -0.00168,-0.01656 -0.00414,-0.02445 -0.0463,-0.00103 -0.09283,-0.00339 -0.13809,-0.00519 0.00584,0.00107 0.08399,-0.0022 0.13465,-0.00408 -0.00266,-0.00615 -0.00601,-0.01213 -0.01005,-0.01794 -0.00532,-0.00765 -0.0115,-0.01459 -0.01855,-0.02082 -0.03595,-0.00119 -0.07184,-0.00292 -0.10696,-0.00432 0.00455,0.00084 0.0531,-0.00097 0.09828,-0.0027 -0.00693,-0.00511 -0.01456,-0.00965 -0.02287,-0.01362 -0.02121,-0.01012 -0.04419,-0.01515 -0.06887,-0.01515z"/>
 </g>
</svg>
